<svg width="406" height="338" viewBox="0 0 406 338" fill="none" xmlns="http://www.w3.org/2000/svg">
<path opacity="0.5" fill-rule="evenodd" clip-rule="evenodd" d="M218.921 20.9548C246.442 6.59138 282.935 -9.43009 309.371 6.84314C336.043 23.2611 322.03 67.8254 338.421 94.5139C355.508 122.337 404.077 130.89 405.584 163.507C407.066 195.59 368.05 213.946 344.97 236.281C327.135 253.541 305.209 263.891 285.831 279.397C262.429 298.123 248.598 341.33 218.921 337.142C187.269 332.674 187.961 280.714 162.094 261.934C140.317 246.122 102.55 261.408 85.7044 240.42C69.3692 220.067 84.0102 189.588 83.0942 163.507C82.1402 136.344 60.6212 102.273 80.1902 83.4106C102.227 62.1695 142.449 91.9597 170.359 79.395C193.855 68.8173 196.078 32.8768 218.921 20.9548Z" fill="#B3D6FF"/>
<g clip-path="url(#clip0)">
<path opacity="0.1" d="M190.9 72.1471C169.267 72.176 148.444 66.0434 128.526 59.2308C108.609 52.4181 88.8457 44.7893 67.6146 41.5566C53.9603 39.4786 38.4336 39.6696 27.7602 47.2145C17.4862 54.4729 14.511 66.4862 13.0756 77.5851C11.9961 85.9345 11.4983 94.6978 15.5413 102.335C18.3486 107.637 23.1528 112.007 26.5389 117.06C38.3583 134.639 31.2504 157.094 19.7638 175.081C14.3779 183.52 8.06881 191.609 3.99683 200.532C-0.0751505 209.454 -1.74504 219.572 2.40798 228.379C6.52337 237.107 15.8192 243.442 25.7951 247.769C46.0537 256.573 69.6405 258.46 92.5935 259.186C143.402 260.798 194.309 257.51 245.08 254.223C263.868 253.007 282.741 251.783 301.141 248.261C311.358 246.307 321.878 243.408 329.121 237.052C338.316 228.983 340.197 215.81 333.506 206.34C322.286 190.457 292.699 187.462 284.654 170.277C280.217 160.816 284.043 149.966 289.678 140.847C301.764 121.28 322.566 103.753 322.916 81.8683C323.157 66.8393 312.339 52.1779 296.181 45.6459C279.245 38.8043 256.153 40.5639 244.287 53.3152C232.086 66.4515 210.001 72.1268 190.9 72.1471Z" fill="#6C63FF"/>
<path d="M287.247 227.198C287.247 227.198 283.69 224.851 280.165 226.521C280.165 226.521 281.25 228.611 285.713 228.414L287.247 227.198Z" fill="#6C63FF"/>
<path d="M287.698 227.323C287.698 227.323 288.781 231.444 286.066 234.248C286.066 234.248 284.434 232.55 286.066 228.388L287.698 227.323Z" fill="#6C63FF"/>
<path d="M292.12 223.367C292.12 223.367 291.857 219.862 283.942 221.025C283.942 221.025 283.904 223.286 286.682 224.356C289.461 225.427 290.734 224.524 292.12 223.367Z" fill="#6C63FF"/>
<path d="M292.618 223.343C292.618 223.343 295.964 224.417 292.98 231.841C292.98 231.841 290.772 231.349 290.375 228.394C289.979 225.439 291.154 224.42 292.618 223.343Z" fill="#6C63FF"/>
<path d="M297.087 218.371C297.087 218.371 297.541 212.604 289.452 213.194C289.452 213.194 288.873 218.403 295.66 219.758L297.087 218.371Z" fill="#6C63FF"/>
<path d="M302.432 211.86C302.432 211.86 301.324 205.322 293.238 207.27C293.238 207.27 293.209 212.922 301.112 213.417L302.432 211.86Z" fill="#6C63FF"/>
<path d="M306.339 205.128C306.339 205.128 304.481 198.761 296.47 200.665C296.47 200.665 298.377 206.393 305.807 206.303L306.339 205.128Z" fill="#6C63FF"/>
<path d="M310.049 198.553C310.049 198.553 308.235 191.946 300.499 193.922C300.499 193.922 303.08 200.199 309.537 199.67L310.049 198.553Z" fill="#6C63FF"/>
<path d="M312.44 192.307C312.44 192.307 311.045 184.227 303.833 186.016C303.833 186.016 305.928 193.367 311.91 193.485L312.44 192.307Z" fill="#6C63FF"/>
<path d="M314.683 184.762C314.683 184.762 313.007 176.618 305.711 178.974C305.711 178.974 308.571 186.673 314.165 185.877L314.683 184.762Z" fill="#6C63FF"/>
<path d="M316.06 177.741C316.06 177.741 313.401 169.595 307.76 169.814C307.76 169.814 310.478 178.419 315.589 179.365L316.06 177.741Z" fill="#6C63FF"/>
<path d="M316.952 170.888C316.952 170.888 314.058 161.083 309.468 161.838C309.468 161.838 311.47 169.334 316.79 172.416L316.952 170.888Z" fill="#6C63FF"/>
<path d="M317.455 162.712C317.455 162.712 314.741 154.542 310.22 154.215C310.22 154.215 312.066 162.255 317.365 164.837L317.455 162.712Z" fill="#6C63FF"/>
<path d="M318.002 155.084C318.002 155.084 314.619 146.905 311.635 146.72C311.635 146.72 313.105 154.774 317.713 156.426L318.002 155.084Z" fill="#6C63FF"/>
<path d="M318.375 147.987C318.375 147.987 316.295 139.105 313.305 138.367C313.305 138.367 313.713 145.634 318.074 148.653L318.375 147.987Z" fill="#6C63FF"/>
<path d="M319.504 138.691C319.504 138.691 317.316 131.61 314.894 130.53C314.894 130.53 315.372 138.88 318.946 140.422L319.504 138.691Z" fill="#6C63FF"/>
<path d="M320.439 132.614L320.879 120.129C320.879 120.129 316.35 129.54 320.112 134.805L320.439 132.614Z" fill="#6C63FF"/>
<path d="M323.935 120.195C323.935 120.195 327.197 111.079 327.987 110.57C327.987 110.57 321.591 116.485 322.216 124.094L323.935 120.195Z" fill="#6C63FF"/>
<path d="M297.307 218.328C297.307 218.328 303.043 217.578 302.872 225.685C302.872 225.685 297.689 226.53 295.996 219.824L297.307 218.328Z" fill="#6C63FF"/>
<path d="M302.704 211.64C302.704 211.64 309.332 211.62 308.782 219.917C308.782 219.917 303.216 220.912 301.382 213.208L302.704 211.64Z" fill="#6C63FF"/>
<path d="M306.403 205.663C306.403 205.663 312.419 202.842 316.269 210.126C316.269 210.126 310.712 212.476 305.87 206.841L306.403 205.663Z" fill="#6C63FF"/>
<path d="M310.182 198.614C310.182 198.614 316.344 195.612 319.962 202.726C319.962 202.726 313.542 204.937 309.673 199.739L310.182 198.614Z" fill="#6C63FF"/>
<path d="M312.362 192.484C312.362 192.484 318.292 186.82 323.024 192.548C323.024 192.548 316.966 197.21 312.09 193.746L312.362 192.484Z" fill="#6C63FF"/>
<path d="M314.347 184.569C314.347 184.569 320.312 178.78 325.006 184.835C325.006 184.835 318.312 189.59 314.133 185.784L314.347 184.569Z" fill="#6C63FF"/>
<path d="M315.461 177.51C315.461 177.51 320.057 170.275 325.469 171.89C325.469 171.89 320.699 179.55 315.513 179.209L315.461 177.51Z" fill="#6C63FF"/>
<path d="M316.816 170.842C316.816 170.842 321.446 161.731 325.828 163.317C325.828 163.317 322.488 170.321 316.697 172.379L316.816 170.842Z" fill="#6C63FF"/>
<path d="M317.137 162.238C317.137 162.238 321.898 155.066 326.357 155.943C326.357 155.943 322.465 163.216 316.674 164.313L317.137 162.238Z" fill="#6C63FF"/>
<path d="M317.507 154.924C317.507 154.924 321.197 146.876 324.196 146.821C324.196 146.821 322.424 154.812 317.756 156.29L317.507 154.924Z" fill="#6C63FF"/>
<path d="M318.231 147.814C318.231 147.814 322.332 139.664 325.414 139.647C325.414 139.647 323.316 146.615 318.367 148.528L318.231 147.814Z" fill="#6C63FF"/>
<path d="M318.847 139.201C318.847 139.201 321.915 132.458 324.456 131.694C324.456 131.694 322.922 139.913 319.186 140.989L318.847 139.201Z" fill="#6C63FF"/>
<path d="M320.804 132.368L327.66 121.923C327.66 121.923 325.903 132.226 319.802 134.368L320.804 132.368Z" fill="#6C63FF"/>
<path d="M325.509 121.038C325.509 121.038 333.477 115.539 333.766 114.65C333.766 114.65 329.715 122.351 322.19 123.712L325.509 121.038Z" fill="#6C63FF"/>
<path d="M325.987 118.563C325.987 118.563 335.135 109.768 337.471 109.777C337.471 109.777 329.926 110.121 325.767 118.094L325.987 118.563Z" fill="#6C63FF"/>
<path d="M318.937 140.506L319.27 140.549C320.989 127.095 323.495 119.133 326.326 118.158L326.216 117.84C323.214 118.881 320.691 126.722 318.937 140.506Z" fill="#444053"/>
<path d="M316.408 172.683L316.911 172.723C317.018 171.467 317.099 170.182 317.154 168.9C317.635 157.764 318.379 147.536 319.357 139.869L319.067 139.508C318.086 147.191 317.131 157.726 316.651 168.88C316.596 170.153 316.515 171.432 316.408 172.683Z" fill="#444053"/>
<path d="M277.858 233.618C277.945 233.58 286.81 229.621 296.01 220.18C301.4 214.651 305.879 208.302 309.28 201.369C313.534 192.707 316.127 182.062 316.995 171.722L316.471 171.968C314.518 195.178 303.952 211.038 295.55 219.677C286.439 229.033 277.673 232.952 277.586 232.99L277.858 233.618Z" fill="#444053"/>
<path d="M300.811 65.092H22.7243C22.0673 65.092 21.4371 65.353 20.9725 65.8175C20.508 66.2821 20.2469 66.9123 20.2469 67.5693V74.7871H303.289V67.5693C303.289 66.9123 303.028 66.2821 302.563 65.8175C302.098 65.353 301.468 65.092 300.811 65.092Z" fill="#3F3D56"/>
<path d="M20.2469 74.7872V237.215C20.2469 238.54 20.7732 239.81 21.71 240.747C22.6468 241.684 23.9173 242.21 25.2421 242.21H298.293C299.618 242.21 300.889 241.684 301.826 240.747C302.762 239.81 303.289 238.54 303.289 237.215V74.7872H20.2469Z" fill="white"/>
<path opacity="0.8" d="M24.7299 71.0248C25.3692 71.0248 25.8875 70.5065 25.8875 69.8672C25.8875 69.2279 25.3692 68.7096 24.7299 68.7096C24.0906 68.7096 23.5723 69.2279 23.5723 69.8672C23.5723 70.5065 24.0906 71.0248 24.7299 71.0248Z" fill="#FA5959"/>
<path opacity="0.8" d="M27.9134 71.0248C28.5527 71.0248 29.071 70.5065 29.071 69.8672C29.071 69.2279 28.5527 68.7096 27.9134 68.7096C27.274 68.7096 26.7557 69.2279 26.7557 69.8672C26.7557 70.5065 27.274 71.0248 27.9134 71.0248Z" fill="#FED253"/>
<path opacity="0.8" d="M31.0968 71.0248C31.7362 71.0248 32.2545 70.5065 32.2545 69.8672C32.2545 69.2279 31.7362 68.7096 31.0968 68.7096C30.4575 68.7096 29.9392 69.2279 29.9392 69.8672C29.9392 70.5065 30.4575 71.0248 31.0968 71.0248Z" fill="#8CCF4D"/>
<path opacity="0.05" d="M274.032 101.87H46.5571V201.895H274.032V101.87Z" fill="black"/>
<path d="M272.296 102.628H48.2936V200.448H272.296V102.628Z" fill="#3F3D56"/>
<path d="M109.359 127.804C104.951 127.804 100.643 129.111 96.9782 131.56C93.3136 134.008 90.4573 137.489 88.7707 141.56C87.084 145.632 86.6427 150.113 87.5025 154.436C88.3624 158.759 90.4848 162.729 93.6013 165.846C96.7179 168.962 100.689 171.085 105.011 171.945C109.334 172.804 113.815 172.363 117.887 170.677C121.959 168.99 125.439 166.134 127.888 162.469C130.336 158.804 131.643 154.496 131.643 150.088C131.643 147.162 131.067 144.264 129.947 141.56C128.827 138.857 127.186 136.4 125.116 134.331C123.047 132.262 120.59 130.62 117.887 129.5C115.183 128.38 112.285 127.804 109.359 127.804ZM113.356 150.624V161.176H105.478V150.624C104.388 149.799 103.584 148.652 103.181 147.345C102.778 146.039 102.795 144.639 103.23 143.343C103.665 142.047 104.497 140.92 105.607 140.122C106.717 139.324 108.049 138.894 109.417 138.894C110.784 138.894 112.117 139.324 113.227 140.122C114.337 140.92 115.168 142.047 115.603 143.343C116.039 144.639 116.056 146.039 115.652 147.345C115.249 148.652 114.446 149.799 113.356 150.624Z" fill="#D9EBFF"/>
<path opacity="0.05" d="M109.359 127.804C104.951 127.804 100.643 129.111 96.9782 131.56C93.3136 134.008 90.4573 137.489 88.7707 141.56C87.084 145.632 86.6427 150.113 87.5025 154.436C88.3624 158.759 90.4848 162.729 93.6013 165.846C96.7179 168.962 100.689 171.085 105.011 171.945C109.334 172.804 113.815 172.363 117.887 170.677C121.959 168.99 125.439 166.134 127.888 162.469C130.336 158.804 131.643 154.496 131.643 150.088C131.643 147.162 131.067 144.264 129.947 141.56C128.827 138.857 127.186 136.4 125.116 134.331C123.047 132.262 120.59 130.62 117.887 129.5C115.183 128.38 112.285 127.804 109.359 127.804ZM113.356 150.624V161.176H105.478V150.624C104.388 149.799 103.584 148.652 103.181 147.345C102.778 146.039 102.795 144.639 103.23 143.343C103.665 142.047 104.497 140.92 105.607 140.122C106.717 139.324 108.049 138.894 109.417 138.894C110.784 138.894 112.117 139.324 113.227 140.122C114.337 140.92 115.168 142.047 115.603 143.343C116.039 144.639 116.056 146.039 115.652 147.345C115.249 148.652 114.446 149.799 113.356 150.624Z" fill="#D9EBFF"/>
<path d="M109.359 121.437C103.692 121.437 98.1527 123.117 93.441 126.266C88.7293 129.414 85.0569 133.889 82.8884 139.124C80.7198 144.359 80.1524 150.12 81.2579 155.678C82.3635 161.236 85.0923 166.341 89.0992 170.348C93.1062 174.355 98.2114 177.084 103.769 178.189C109.327 179.295 115.088 178.727 120.323 176.559C125.559 174.39 130.033 170.718 133.182 166.006C136.33 161.295 138.01 155.755 138.01 150.088C138.01 142.49 134.992 135.202 129.619 129.829C124.245 124.456 116.958 121.437 109.359 121.437ZM114.496 150.777V164.342H104.367V150.777C102.964 149.716 101.931 148.241 101.412 146.561C100.893 144.881 100.915 143.08 101.475 141.413C102.034 139.747 103.104 138.297 104.531 137.271C105.959 136.244 107.673 135.692 109.431 135.692C111.19 135.692 112.904 136.244 114.331 137.271C115.759 138.297 116.828 139.747 117.388 141.413C117.947 143.08 117.969 144.881 117.45 146.561C116.932 148.241 115.898 149.716 114.496 150.777Z" fill="#CEDDFF"/>
<path d="M242.487 146.329H149.876V156.169H242.487V146.329Z" fill="white"/>
<path d="M242.487 164.272H222.518V174.112H242.487V164.272Z" fill="#D9EBFF"/>
<path d="M158.992 151.101H157.317L158.807 149.614C158.834 149.586 158.849 149.549 158.849 149.511C158.849 149.473 158.834 149.436 158.807 149.408C158.794 149.395 158.778 149.384 158.76 149.377C158.742 149.369 158.723 149.365 158.704 149.365C158.685 149.365 158.666 149.369 158.649 149.377C158.631 149.384 158.615 149.395 158.602 149.408L157.111 150.899V149.22C157.111 149.182 157.096 149.145 157.069 149.118C157.042 149.091 157.005 149.075 156.966 149.075C156.928 149.076 156.892 149.092 156.865 149.119C156.838 149.146 156.822 149.182 156.822 149.22V150.899L155.334 149.4C155.321 149.386 155.305 149.375 155.287 149.368C155.269 149.361 155.251 149.357 155.231 149.357C155.212 149.357 155.193 149.361 155.176 149.368C155.158 149.375 155.142 149.386 155.129 149.4C155.102 149.427 155.087 149.464 155.087 149.502C155.087 149.541 155.102 149.578 155.129 149.605L156.619 151.093H154.941C154.902 151.093 154.866 151.109 154.839 151.136C154.812 151.163 154.797 151.199 154.796 151.237C154.796 151.276 154.811 151.313 154.838 151.34C154.865 151.367 154.902 151.382 154.941 151.382H156.619L155.129 152.872C155.102 152.9 155.087 152.937 155.087 152.975C155.087 153.014 155.102 153.05 155.129 153.078C155.157 153.104 155.193 153.118 155.231 153.118C155.27 153.118 155.306 153.104 155.334 153.078L156.822 151.588V153.263C156.822 153.302 156.837 153.338 156.864 153.366C156.891 153.393 156.928 153.408 156.966 153.408C157.005 153.408 157.042 153.393 157.069 153.366C157.096 153.338 157.111 153.302 157.111 153.263V151.588L158.602 153.078C158.629 153.104 158.666 153.118 158.704 153.118C158.742 153.118 158.779 153.104 158.807 153.078C158.834 153.05 158.849 153.014 158.849 152.975C158.849 152.937 158.834 152.9 158.807 152.872L157.317 151.382H158.992C159.031 151.382 159.067 151.367 159.095 151.34C159.122 151.313 159.137 151.276 159.137 151.237C159.135 151.2 159.119 151.166 159.092 151.141C159.065 151.115 159.029 151.101 158.992 151.101Z" fill="#6C63FF"/>
<path d="M165.07 151.101H163.394L164.885 149.614C164.911 149.586 164.926 149.549 164.926 149.511C164.926 149.473 164.911 149.436 164.885 149.408C164.871 149.395 164.855 149.384 164.838 149.377C164.82 149.369 164.801 149.365 164.782 149.365C164.763 149.365 164.744 149.369 164.726 149.377C164.709 149.384 164.693 149.395 164.679 149.408L163.189 150.899V149.22C163.189 149.182 163.174 149.145 163.146 149.118C163.119 149.091 163.082 149.075 163.044 149.075C163.006 149.076 162.97 149.092 162.943 149.119C162.916 149.146 162.9 149.182 162.899 149.22V150.899L161.412 149.4C161.398 149.386 161.382 149.375 161.365 149.368C161.347 149.361 161.328 149.357 161.309 149.357C161.29 149.357 161.271 149.361 161.253 149.368C161.236 149.375 161.22 149.386 161.206 149.4C161.18 149.427 161.165 149.464 161.165 149.502C161.165 149.541 161.18 149.578 161.206 149.605L162.697 151.093H161.018C160.98 151.093 160.944 151.109 160.917 151.136C160.89 151.163 160.874 151.199 160.874 151.237C160.874 151.276 160.889 151.313 160.916 151.34C160.943 151.367 160.98 151.382 161.018 151.382H162.697L161.206 152.872C161.18 152.9 161.165 152.937 161.165 152.975C161.165 153.014 161.18 153.05 161.206 153.078C161.234 153.104 161.271 153.118 161.309 153.118C161.347 153.118 161.384 153.104 161.412 153.078L162.899 151.588V153.263C162.899 153.302 162.915 153.338 162.942 153.366C162.969 153.393 163.006 153.408 163.044 153.408C163.082 153.408 163.119 153.393 163.146 153.366C163.174 153.338 163.189 153.302 163.189 153.263V151.588L164.679 153.078C164.707 153.104 164.744 153.118 164.782 153.118C164.82 153.118 164.857 153.104 164.885 153.078C164.911 153.05 164.926 153.014 164.926 152.975C164.926 152.937 164.911 152.9 164.885 152.872L163.394 151.382H165.07C165.108 151.382 165.145 151.367 165.172 151.34C165.199 151.313 165.215 151.276 165.215 151.237C165.212 151.2 165.196 151.166 165.169 151.141C165.142 151.115 165.107 151.101 165.07 151.101Z" fill="#6C63FF"/>
<path d="M171.148 151.101H169.472L170.962 149.614C170.989 149.586 171.004 149.549 171.004 149.511C171.004 149.473 170.989 149.436 170.962 149.408C170.949 149.395 170.933 149.384 170.915 149.377C170.898 149.369 170.879 149.365 170.86 149.365C170.841 149.365 170.822 149.369 170.804 149.377C170.786 149.384 170.77 149.395 170.757 149.408L169.266 150.899V149.22C169.266 149.182 169.251 149.145 169.224 149.118C169.197 149.091 169.16 149.075 169.122 149.075C169.084 149.076 169.047 149.092 169.02 149.119C168.993 149.146 168.978 149.182 168.977 149.22V150.899L167.489 149.4C167.476 149.386 167.46 149.375 167.442 149.368C167.425 149.361 167.406 149.357 167.387 149.357C167.368 149.357 167.349 149.361 167.331 149.368C167.313 149.375 167.297 149.386 167.284 149.4C167.257 149.427 167.242 149.464 167.242 149.502C167.242 149.541 167.257 149.578 167.284 149.605L168.774 151.093H167.096C167.058 151.093 167.021 151.109 166.994 151.136C166.967 151.163 166.952 151.199 166.951 151.237C166.951 151.276 166.966 151.313 166.994 151.34C167.021 151.367 167.057 151.382 167.096 151.382H168.774L167.284 152.872C167.257 152.9 167.242 152.937 167.242 152.975C167.242 153.014 167.257 153.05 167.284 153.078C167.312 153.104 167.349 153.118 167.387 153.118C167.425 153.118 167.462 153.104 167.489 153.078L168.977 151.588V153.263C168.977 153.302 168.992 153.338 169.019 153.366C169.047 153.393 169.083 153.408 169.122 153.408C169.16 153.408 169.197 153.393 169.224 153.366C169.251 153.338 169.266 153.302 169.266 153.263V151.588L170.757 153.078C170.785 153.104 170.821 153.118 170.86 153.118C170.898 153.118 170.934 153.104 170.962 153.078C170.989 153.05 171.004 153.014 171.004 152.975C171.004 152.937 170.989 152.9 170.962 152.872L169.472 151.382H171.148C171.186 151.382 171.223 151.367 171.25 151.34C171.277 151.313 171.292 151.276 171.292 151.237C171.29 151.2 171.274 151.166 171.247 151.141C171.22 151.115 171.185 151.101 171.148 151.101Z" fill="#6C63FF"/>
<path d="M177.225 151.101H175.55L177.04 149.614C177.067 149.586 177.082 149.549 177.082 149.511C177.082 149.473 177.067 149.436 177.04 149.408C177.027 149.395 177.011 149.384 176.993 149.377C176.975 149.369 176.956 149.365 176.937 149.365C176.918 149.365 176.899 149.369 176.882 149.377C176.864 149.384 176.848 149.395 176.835 149.408L175.344 150.899V149.22C175.344 149.182 175.329 149.145 175.302 149.118C175.275 149.091 175.238 149.075 175.199 149.075C175.161 149.076 175.125 149.092 175.098 149.119C175.071 149.146 175.055 149.182 175.055 149.22V150.899L173.567 149.4C173.554 149.386 173.538 149.375 173.52 149.368C173.502 149.361 173.483 149.357 173.464 149.357C173.445 149.357 173.426 149.361 173.409 149.368C173.391 149.375 173.375 149.386 173.362 149.4C173.335 149.427 173.32 149.464 173.32 149.502C173.32 149.541 173.335 149.578 173.362 149.605L174.852 151.093H173.174C173.135 151.093 173.099 151.109 173.072 151.136C173.045 151.163 173.03 151.199 173.029 151.237C173.029 151.276 173.044 151.313 173.071 151.34C173.098 151.367 173.135 151.382 173.174 151.382H174.852L173.362 152.872C173.335 152.9 173.32 152.937 173.32 152.975C173.32 153.014 173.335 153.05 173.362 153.078C173.389 153.104 173.426 153.118 173.464 153.118C173.502 153.118 173.539 153.104 173.567 153.078L175.055 151.588V153.263C175.055 153.302 175.07 153.338 175.097 153.366C175.124 153.393 175.161 153.408 175.199 153.408C175.238 153.408 175.275 153.393 175.302 153.366C175.329 153.338 175.344 153.302 175.344 153.263V151.588L176.835 153.078C176.862 153.104 176.899 153.118 176.937 153.118C176.975 153.118 177.012 153.104 177.04 153.078C177.067 153.05 177.082 153.014 177.082 152.975C177.082 152.937 177.067 152.9 177.04 152.872L175.55 151.382H177.225C177.264 151.382 177.3 151.367 177.328 151.34C177.355 151.313 177.37 151.276 177.37 151.237C177.368 151.2 177.351 151.166 177.325 151.141C177.298 151.115 177.262 151.101 177.225 151.101Z" fill="#6C63FF"/>
<path d="M183.303 151.101H181.627L183.117 149.614C183.144 149.586 183.159 149.549 183.159 149.511C183.159 149.473 183.144 149.436 183.117 149.408C183.104 149.395 183.088 149.384 183.07 149.377C183.053 149.369 183.034 149.365 183.015 149.365C182.996 149.365 182.977 149.369 182.959 149.377C182.941 149.384 182.925 149.395 182.912 149.408L181.421 150.899V149.22C181.421 149.182 181.406 149.145 181.379 149.118C181.352 149.091 181.315 149.075 181.277 149.075C181.239 149.076 181.202 149.092 181.175 149.119C181.148 149.146 181.133 149.182 181.132 149.22V150.899L179.644 149.4C179.631 149.386 179.615 149.375 179.597 149.368C179.58 149.361 179.561 149.357 179.542 149.357C179.523 149.357 179.504 149.361 179.486 149.368C179.468 149.375 179.452 149.386 179.439 149.4C179.412 149.427 179.397 149.464 179.397 149.502C179.397 149.541 179.412 149.578 179.439 149.605L180.929 151.093H179.251C179.213 151.093 179.176 151.109 179.149 151.136C179.122 151.163 179.107 151.199 179.106 151.237C179.106 151.276 179.121 151.313 179.149 151.34C179.176 151.367 179.213 151.382 179.251 151.382H180.929L179.439 152.872C179.412 152.9 179.397 152.937 179.397 152.975C179.397 153.014 179.412 153.05 179.439 153.078C179.467 153.104 179.504 153.118 179.542 153.118C179.58 153.118 179.617 153.104 179.644 153.078L181.132 151.588V153.263C181.132 153.302 181.147 153.338 181.174 153.366C181.202 153.393 181.238 153.408 181.277 153.408C181.315 153.408 181.352 153.393 181.379 153.366C181.406 153.338 181.421 153.302 181.421 153.263V151.588L182.912 153.078C182.94 153.104 182.977 153.118 183.015 153.118C183.053 153.118 183.09 153.104 183.117 153.078C183.144 153.05 183.159 153.014 183.159 152.975C183.159 152.937 183.144 152.9 183.117 152.872L181.627 151.382H183.303C183.341 151.382 183.378 151.367 183.405 151.34C183.432 151.313 183.447 151.276 183.447 151.237C183.445 151.2 183.429 151.166 183.402 151.141C183.375 151.115 183.34 151.101 183.303 151.101Z" fill="#6C63FF"/>
<path d="M189.381 151.101H187.705L189.195 149.614C189.222 149.586 189.237 149.549 189.237 149.511C189.237 149.473 189.222 149.436 189.195 149.408C189.182 149.395 189.166 149.384 189.148 149.377C189.131 149.369 189.112 149.365 189.093 149.365C189.073 149.365 189.055 149.369 189.037 149.377C189.019 149.384 189.003 149.395 188.99 149.408L187.499 150.899V149.22C187.499 149.182 187.484 149.145 187.457 149.118C187.43 149.091 187.393 149.075 187.355 149.075C187.317 149.076 187.28 149.092 187.253 149.119C187.226 149.146 187.211 149.182 187.21 149.22V150.899L185.722 149.4C185.709 149.386 185.693 149.375 185.675 149.368C185.658 149.361 185.639 149.357 185.62 149.357C185.601 149.357 185.582 149.361 185.564 149.368C185.546 149.375 185.53 149.386 185.517 149.4C185.49 149.427 185.475 149.464 185.475 149.502C185.475 149.541 185.49 149.578 185.517 149.605L187.007 151.093H185.329C185.291 151.093 185.254 151.109 185.227 151.136C185.2 151.163 185.185 151.199 185.184 151.237C185.184 151.276 185.199 151.313 185.226 151.34C185.254 151.367 185.29 151.382 185.329 151.382H187.007L185.517 152.872C185.49 152.9 185.475 152.937 185.475 152.975C185.475 153.014 185.49 153.05 185.517 153.078C185.545 153.104 185.581 153.118 185.62 153.118C185.658 153.118 185.695 153.104 185.722 153.078L187.21 151.588V153.263C187.21 153.302 187.225 153.338 187.252 153.366C187.279 153.393 187.316 153.408 187.355 153.408C187.393 153.408 187.43 153.393 187.457 153.366C187.484 153.338 187.499 153.302 187.499 153.263V151.588L188.99 153.078C189.018 153.104 189.054 153.118 189.093 153.118C189.131 153.118 189.167 153.104 189.195 153.078C189.222 153.05 189.237 153.014 189.237 152.975C189.237 152.937 189.222 152.9 189.195 152.872L187.705 151.382H189.381C189.419 151.382 189.456 151.367 189.483 151.34C189.51 151.313 189.525 151.276 189.525 151.237C189.523 151.2 189.507 151.166 189.48 151.141C189.453 151.115 189.417 151.101 189.381 151.101Z" fill="#6C63FF"/>
<path d="M195.458 151.101H193.782L195.273 149.614C195.299 149.586 195.314 149.549 195.314 149.511C195.314 149.473 195.299 149.436 195.273 149.408C195.259 149.395 195.243 149.384 195.226 149.377C195.208 149.369 195.189 149.365 195.17 149.365C195.151 149.365 195.132 149.369 195.114 149.377C195.097 149.384 195.081 149.395 195.067 149.408L193.577 150.899V149.22C193.577 149.182 193.561 149.145 193.534 149.118C193.507 149.091 193.47 149.075 193.432 149.075C193.394 149.076 193.358 149.092 193.331 149.119C193.304 149.146 193.288 149.182 193.287 149.22V150.899L191.8 149.4C191.786 149.386 191.77 149.375 191.753 149.368C191.735 149.361 191.716 149.357 191.697 149.357C191.678 149.357 191.659 149.361 191.641 149.368C191.624 149.375 191.608 149.386 191.594 149.4C191.568 149.427 191.553 149.464 191.553 149.502C191.553 149.541 191.568 149.578 191.594 149.605L193.085 151.093H191.406C191.368 151.093 191.332 151.109 191.305 151.136C191.278 151.163 191.262 151.199 191.261 151.237C191.261 151.276 191.277 151.313 191.304 151.34C191.331 151.367 191.368 151.382 191.406 151.382H193.085L191.594 152.872C191.568 152.9 191.553 152.937 191.553 152.975C191.553 153.014 191.568 153.05 191.594 153.078C191.622 153.104 191.659 153.118 191.697 153.118C191.735 153.118 191.772 153.104 191.8 153.078L193.287 151.588V153.263C193.287 153.302 193.303 153.338 193.33 153.366C193.357 153.393 193.394 153.408 193.432 153.408C193.47 153.408 193.507 153.393 193.534 153.366C193.561 153.338 193.577 153.302 193.577 153.263V151.588L195.067 153.078C195.095 153.104 195.132 153.118 195.17 153.118C195.208 153.118 195.245 153.104 195.273 153.078C195.299 153.05 195.314 153.014 195.314 152.975C195.314 152.937 195.299 152.9 195.273 152.872L193.782 151.382H195.458C195.496 151.382 195.533 151.367 195.56 151.34C195.587 151.313 195.603 151.276 195.603 151.237C195.6 151.2 195.584 151.166 195.557 151.141C195.53 151.115 195.495 151.101 195.458 151.101Z" fill="#6C63FF"/>
<path d="M201.536 151.101H199.86L201.35 149.614C201.377 149.586 201.392 149.549 201.392 149.511C201.392 149.473 201.377 149.436 201.35 149.408C201.337 149.395 201.321 149.384 201.303 149.377C201.286 149.369 201.267 149.365 201.248 149.365C201.228 149.365 201.21 149.369 201.192 149.377C201.174 149.384 201.158 149.395 201.145 149.408L199.654 150.899V149.22C199.654 149.182 199.639 149.145 199.612 149.118C199.585 149.091 199.548 149.075 199.51 149.075C199.472 149.076 199.435 149.092 199.408 149.119C199.381 149.146 199.366 149.182 199.365 149.22V150.899L197.877 149.4C197.864 149.386 197.848 149.375 197.83 149.368C197.813 149.361 197.794 149.357 197.775 149.357C197.756 149.357 197.737 149.361 197.719 149.368C197.701 149.375 197.685 149.386 197.672 149.4C197.645 149.427 197.63 149.464 197.63 149.502C197.63 149.541 197.645 149.578 197.672 149.605L199.162 151.093H197.484C197.446 151.093 197.409 151.109 197.382 151.136C197.355 151.163 197.34 151.199 197.339 151.237C197.339 151.276 197.354 151.313 197.381 151.34C197.409 151.367 197.445 151.382 197.484 151.382H199.162L197.672 152.872C197.645 152.9 197.63 152.937 197.63 152.975C197.63 153.014 197.645 153.05 197.672 153.078C197.7 153.104 197.737 153.118 197.775 153.118C197.813 153.118 197.85 153.104 197.877 153.078L199.365 151.588V153.263C199.365 153.302 199.38 153.338 199.407 153.366C199.434 153.393 199.471 153.408 199.51 153.408C199.548 153.408 199.585 153.393 199.612 153.366C199.639 153.338 199.654 153.302 199.654 153.263V151.588L201.145 153.078C201.173 153.104 201.209 153.118 201.248 153.118C201.286 153.118 201.322 153.104 201.35 153.078C201.377 153.05 201.392 153.014 201.392 152.975C201.392 152.937 201.377 152.9 201.35 152.872L199.86 151.382H201.536C201.574 151.382 201.611 151.367 201.638 151.34C201.665 151.313 201.68 151.276 201.68 151.237C201.678 151.2 201.662 151.166 201.635 151.141C201.608 151.115 201.572 151.101 201.536 151.101Z" fill="#6C63FF"/>
<path d="M207.613 151.101H205.937L207.428 149.614C207.454 149.586 207.469 149.549 207.469 149.511C207.469 149.473 207.454 149.436 207.428 149.408C207.414 149.395 207.398 149.384 207.381 149.377C207.363 149.369 207.344 149.365 207.325 149.365C207.306 149.365 207.287 149.369 207.269 149.377C207.252 149.384 207.236 149.395 207.222 149.408L205.732 150.899V149.22C205.732 149.182 205.717 149.145 205.689 149.118C205.662 149.091 205.625 149.075 205.587 149.075C205.549 149.076 205.513 149.092 205.486 149.119C205.459 149.146 205.443 149.182 205.442 149.22V150.899L203.955 149.4C203.941 149.386 203.925 149.375 203.908 149.368C203.89 149.361 203.871 149.357 203.852 149.357C203.833 149.357 203.814 149.361 203.796 149.368C203.779 149.375 203.763 149.386 203.749 149.4C203.723 149.427 203.708 149.464 203.708 149.502C203.708 149.541 203.723 149.578 203.749 149.605L205.24 151.093H203.561C203.523 151.093 203.487 151.109 203.46 151.136C203.433 151.163 203.417 151.199 203.417 151.237C203.417 151.276 203.432 151.313 203.459 151.34C203.486 151.367 203.523 151.382 203.561 151.382H205.24L203.749 152.872C203.723 152.9 203.708 152.937 203.708 152.975C203.708 153.014 203.723 153.05 203.749 153.078C203.777 153.104 203.814 153.118 203.852 153.118C203.89 153.118 203.927 153.104 203.955 153.078L205.442 151.588V153.263C205.442 153.302 205.458 153.338 205.485 153.366C205.512 153.393 205.549 153.408 205.587 153.408C205.625 153.408 205.662 153.393 205.689 153.366C205.717 153.338 205.732 153.302 205.732 153.263V151.588L207.222 153.078C207.25 153.104 207.287 153.118 207.325 153.118C207.363 153.118 207.4 153.104 207.428 153.078C207.454 153.05 207.469 153.014 207.469 152.975C207.469 152.937 207.454 152.9 207.428 152.872L205.937 151.382H207.613C207.651 151.382 207.688 151.367 207.715 151.34C207.742 151.313 207.758 151.276 207.758 151.237C207.755 151.2 207.739 151.166 207.712 151.141C207.685 151.115 207.65 151.101 207.613 151.101Z" fill="#6C63FF"/>
<path d="M213.691 151.101H212.015L213.506 149.614C213.532 149.586 213.547 149.549 213.547 149.511C213.547 149.473 213.532 149.436 213.506 149.408C213.492 149.395 213.476 149.384 213.458 149.377C213.441 149.369 213.422 149.365 213.403 149.365C213.384 149.365 213.365 149.369 213.347 149.377C213.33 149.384 213.314 149.395 213.3 149.408L211.81 150.899V149.22C211.81 149.182 211.794 149.145 211.767 149.118C211.74 149.091 211.703 149.075 211.665 149.075C211.627 149.076 211.59 149.092 211.563 149.119C211.536 149.146 211.521 149.182 211.52 149.22V150.899L210.033 149.4C210.019 149.386 210.003 149.375 209.986 149.368C209.968 149.361 209.949 149.357 209.93 149.357C209.911 149.357 209.892 149.361 209.874 149.368C209.857 149.375 209.841 149.386 209.827 149.4C209.8 149.427 209.786 149.464 209.786 149.502C209.786 149.541 209.8 149.578 209.827 149.605L211.318 151.093H209.639C209.601 151.093 209.565 151.109 209.538 151.136C209.511 151.163 209.495 151.199 209.494 151.237C209.494 151.276 209.51 151.313 209.537 151.34C209.564 151.367 209.601 151.382 209.639 151.382H211.318L209.827 152.872C209.8 152.9 209.786 152.937 209.786 152.975C209.786 153.014 209.8 153.05 209.827 153.078C209.855 153.104 209.892 153.118 209.93 153.118C209.968 153.118 210.005 153.104 210.033 153.078L211.52 151.588V153.263C211.52 153.302 211.535 153.338 211.563 153.366C211.59 153.393 211.627 153.408 211.665 153.408C211.703 153.408 211.74 153.393 211.767 153.366C211.794 153.338 211.81 153.302 211.81 153.263V151.588L213.3 153.078C213.328 153.104 213.365 153.118 213.403 153.118C213.441 153.118 213.478 153.104 213.506 153.078C213.532 153.05 213.547 153.014 213.547 152.975C213.547 152.937 213.532 152.9 213.506 152.872L212.015 151.382H213.691C213.729 151.382 213.766 151.367 213.793 151.34C213.82 151.313 213.836 151.276 213.836 151.237C213.833 151.2 213.817 151.166 213.79 151.141C213.763 151.115 213.728 151.101 213.691 151.101Z" fill="#6C63FF"/>
<path d="M219.768 151.101H218.093L219.583 149.614C219.61 149.586 219.625 149.549 219.625 149.511C219.625 149.473 219.61 149.436 219.583 149.408C219.57 149.395 219.554 149.384 219.536 149.377C219.518 149.369 219.499 149.365 219.48 149.365C219.461 149.365 219.442 149.369 219.425 149.377C219.407 149.384 219.391 149.395 219.377 149.408L217.887 150.899V149.22C217.887 149.182 217.872 149.145 217.845 149.118C217.818 149.091 217.781 149.075 217.742 149.075C217.704 149.076 217.668 149.092 217.641 149.119C217.614 149.146 217.598 149.182 217.598 149.22V150.899L216.11 149.4C216.097 149.386 216.081 149.375 216.063 149.368C216.045 149.361 216.026 149.357 216.007 149.357C215.988 149.357 215.969 149.361 215.952 149.368C215.934 149.375 215.918 149.386 215.905 149.4C215.878 149.427 215.863 149.464 215.863 149.502C215.863 149.541 215.878 149.578 215.905 149.605L217.395 151.093H215.716C215.678 151.093 215.642 151.109 215.615 151.136C215.588 151.163 215.573 151.199 215.572 151.237C215.572 151.276 215.587 151.313 215.614 151.34C215.641 151.367 215.678 151.382 215.716 151.382H217.395L215.905 152.872C215.878 152.9 215.863 152.937 215.863 152.975C215.863 153.014 215.878 153.05 215.905 153.078C215.932 153.104 215.969 153.118 216.007 153.118C216.045 153.118 216.082 153.104 216.11 153.078L217.598 151.588V153.263C217.598 153.302 217.613 153.338 217.64 153.366C217.667 153.393 217.704 153.408 217.742 153.408C217.781 153.408 217.818 153.393 217.845 153.366C217.872 153.338 217.887 153.302 217.887 153.263V151.588L219.377 153.078C219.405 153.104 219.442 153.118 219.48 153.118C219.518 153.118 219.555 153.104 219.583 153.078C219.61 153.05 219.625 153.014 219.625 152.975C219.625 152.937 219.61 152.9 219.583 152.872L218.093 151.382H219.768C219.807 151.382 219.843 151.367 219.871 151.34C219.898 151.313 219.913 151.276 219.913 151.237C219.911 151.2 219.894 151.166 219.868 151.141C219.841 151.115 219.805 151.101 219.768 151.101Z" fill="#6C63FF"/>
<path d="M266.36 186.308C266.352 185.958 266.308 185.61 266.23 185.269C265.969 184.291 265.382 183.107 264.415 182.812C263.417 182.506 262.453 182.099 261.539 181.596C261.365 178.494 262.077 175.319 261.301 172.312C261.012 171.212 260.534 170.159 260.407 169.033C260.248 167.632 260.63 166.139 260.071 164.848C259.631 163.829 258.665 163.112 257.626 162.736C256.587 162.359 255.467 162.258 254.364 162.157C252.975 162.044 248.478 161.511 246.909 162.753C246.801 162.837 246.703 162.934 246.62 163.042C246.585 163.09 246.554 163.14 246.527 163.193L246.512 163.216C246.481 163.276 246.455 163.339 246.434 163.404C246.412 163.475 246.396 163.548 246.385 163.621C246.385 163.644 246.385 163.667 246.385 163.691C246.385 163.714 246.385 163.792 246.385 163.844V163.922C246.385 163.974 246.385 164.026 246.385 164.081C246.385 164.136 246.385 164.122 246.385 164.142C246.405 164.403 246.443 164.663 246.443 164.921C246.446 165.049 246.434 165.177 246.408 165.303C246.312 165.644 246.149 165.963 245.928 166.24L245.876 166.316C245.844 166.362 245.812 166.405 245.783 166.452C245.754 166.498 245.731 166.533 245.708 166.573C245.685 166.614 245.662 166.64 245.641 166.677C245.613 166.725 245.588 166.774 245.566 166.825C245.566 166.854 245.534 166.88 245.523 166.909C245.486 166.987 245.457 167.068 245.436 167.152C245.368 167.403 245.362 167.667 245.418 167.922C245.496 168.246 245.631 168.555 245.815 168.833C245.887 168.952 245.965 169.068 246.046 169.184L246.249 169.458C246.211 169.727 246.191 169.998 246.188 170.269C246.188 171.175 246.394 172.069 246.79 172.885C247.186 173.7 247.762 174.414 248.475 174.975C248.589 176.197 248.577 177.428 248.437 178.647C248.411 178.902 248.379 179.159 248.344 179.414C248.31 179.669 248.284 179.837 248.249 180.048C247.825 180.109 247.394 180.076 246.984 179.952C246.795 179.868 246.602 179.794 246.405 179.73C245.563 179.518 244.704 180.358 243.87 180.103C243.87 180.143 243.847 180.181 243.832 180.219C243.659 180.111 243.458 180.052 243.254 180.048C242.759 180.025 242.357 179.666 241.998 179.327L240.895 178.288C240.823 178.225 240.759 178.153 240.704 178.074C240.645 177.962 240.6 177.842 240.571 177.718C240.386 177.119 239.937 176.642 239.503 176.187C239.421 176.084 239.312 176.005 239.187 175.959C239.14 175.951 239.091 175.951 239.043 175.959C239.013 175.918 238.981 175.88 238.947 175.843C238.872 175.757 238.792 175.676 238.707 175.6C238.18 175.114 238.128 174.697 237.671 174.153C237.272 173.634 236.91 173.087 236.589 172.518C236.551 172.214 236.499 171.901 236.435 171.586C236.289 170.863 236.077 170.156 235.801 169.473L235.223 168.191L235.156 168.257C234.736 167.632 234.288 167.291 233.886 167.372C233.211 167.511 232.878 168.819 232.985 170.529L233.217 172.266C233.217 172.309 233.237 172.353 233.249 172.396C233.207 172.602 233.186 172.811 233.185 173.021C233.185 173.264 233.411 173.444 233.53 173.661C233.719 173.955 233.82 174.298 233.819 174.648C233.804 174.772 233.767 174.891 233.761 175.012C233.777 175.284 233.871 175.546 234.033 175.765L235.48 178.196L235.77 178.705L235.787 178.728C235.878 178.906 236.011 179.059 236.175 179.174C236.231 179.783 236.393 180.377 236.652 180.931C236.701 181.041 236.756 181.145 236.814 181.249C237.203 181.889 237.662 182.483 238.18 183.023L238.869 183.796C239.549 184.554 240.229 185.315 240.967 186.016C241.232 186.297 241.551 186.52 241.905 186.672C242.079 186.742 242.267 186.764 242.452 186.737C242.637 186.71 242.812 186.635 242.958 186.519C242.958 186.878 242.958 187.237 242.958 187.596C243.066 187.602 243.17 187.638 243.259 187.698C243.348 187.758 243.42 187.841 243.467 187.938C243.513 188.035 243.533 188.142 243.524 188.25C243.515 188.357 243.478 188.46 243.416 188.548C242.808 190.108 242.194 191.682 241.274 193.08C241.924 193.465 242.526 193.924 243.068 194.449C243.42 194.839 243.734 195.263 244.003 195.714C244.029 195.928 244.05 196.139 244.061 196.35C244.275 199.8 242.941 203.224 241.746 206.511C241.401 207.443 241.025 208.419 241.054 209.388C240.827 209.528 240.611 209.684 240.406 209.854C240.643 210.473 240.551 211.026 240.525 211.689C240.516 212.086 240.435 212.479 240.284 212.847C240.159 213.102 240.019 213.35 239.868 213.59C239.118 214.913 238.953 216.484 238.803 217.995C238.713 218.907 239.066 220.021 238.652 220.837C237.937 222.238 237.303 223.731 237.205 225.288C237.202 225.639 237.157 225.987 237.072 226.327C236.982 226.617 236.823 226.863 236.742 227.146C236.659 227.526 236.639 227.918 236.684 228.304C236.739 229.691 236.533 231.076 236.076 232.387C235.715 233.421 235.315 234.526 235.599 235.588C234.901 236.322 234.469 237.269 234.375 238.277C234.367 238.535 234.336 238.792 234.282 239.044C234.194 239.302 234.077 239.549 233.935 239.782C233.352 240.843 233.079 242.046 233.148 243.255C232.279 244.433 231.845 245.886 231.588 247.33C231.33 248.774 231.217 250.244 230.887 251.671C230.447 253.558 229.651 255.465 229.495 257.398C228.558 257.997 228.152 259.158 227.973 260.255C227.793 261.352 227.765 262.503 227.304 263.516C227.067 264.043 226.726 264.515 226.5 265.053C226.341 265.482 226.225 265.925 226.153 266.376C226.014 267.082 225.892 267.869 226.063 268.546C225.817 268.806 225.531 269.024 225.215 269.192C225.261 269.012 225.299 268.833 225.331 268.65C224.584 269.328 223.229 269.09 222.633 269.904C222.454 270.166 222.384 270.487 222.438 270.8C222.492 271.113 222.666 271.392 222.923 271.579C223.109 271.693 223.311 271.78 223.522 271.837C224.969 272.3 226.456 272.766 227.944 272.52C228.12 272.501 228.29 272.447 228.445 272.361C228.638 272.218 228.797 272.034 228.911 271.822C229.133 271.469 229.356 271.116 229.576 270.763C230.109 270.922 230.651 271.049 231.2 271.142C231.255 271.605 231.295 272.068 231.316 272.531C231.605 272.589 231.993 272.607 232.129 272.337C232.17 272.236 232.187 272.126 232.178 272.016C232.178 271.811 232.207 271.539 232.224 271.261H232.282C233.165 271.297 234.044 271.119 234.843 270.743C234.534 268.179 235.555 265.672 236.441 263.247C237.376 260.695 238.177 258.096 238.985 255.497C239.564 253.668 240.203 251.897 240.771 250.065C241.484 247.749 242.201 245.434 242.921 243.119C243.233 242.1 243.549 241.093 243.908 240.08C244.663 238.03 245.56 236.035 246.591 234.109C246.88 233.562 247.169 233.021 247.407 232.454C247.696 231.762 247.902 231.039 248.133 230.324C248.638 228.857 249.245 227.428 249.951 226.047C249.971 226.009 249.985 225.974 250.006 225.939C250.24 226.897 250.474 227.87 250.631 228.834C250.842 230.015 250.859 231.224 250.68 232.411C250.541 233.218 250.278 234.017 250.309 234.836C250.353 235.967 250.958 236.995 251.256 238.086C251.448 238.902 251.557 239.736 251.58 240.575C251.661 241.877 252.367 243.339 251.869 244.546C250.321 248.369 251.071 252.687 250.188 256.701C249.734 258.761 248.341 260.697 248.451 262.804C248.529 264.3 248.66 265.791 248.845 267.279C248.89 267.748 249.012 268.207 249.207 268.636C249.322 268.862 249.455 269.079 249.603 269.284C249.476 269.333 249.369 269.464 249.276 269.739C249.039 270.462 249.276 271.359 249.919 271.764C250.181 271.904 250.463 272.002 250.755 272.054C251.149 272.166 251.556 272.222 251.965 272.222C252.092 272.215 252.219 272.199 252.344 272.175C252.791 272.363 253.248 272.528 253.713 272.667C253.713 272.786 253.736 272.905 253.751 273.023C253.751 273.085 253.765 273.147 253.791 273.203C253.817 273.259 253.854 273.309 253.901 273.35C253.973 273.384 254.053 273.398 254.133 273.391H255.704C255.704 273.261 255.704 273.128 255.704 272.997C255.884 273.016 256.066 272.997 256.238 272.941C256.41 272.885 256.568 272.794 256.703 272.673C256.842 272.496 256.94 272.291 256.992 272.071C257.42 270.618 257.846 269.165 258.268 267.71C258.775 266.102 258.986 264.415 258.89 262.732C258.332 257.398 259.559 252.047 259.16 246.699C258.919 243.484 259.085 240.252 259.652 237.079C259.782 236.361 259.941 235.632 259.999 234.917C260.126 233.568 259.97 232.205 260.065 230.865C260.097 230.396 260.161 229.93 260.219 229.464C260.615 226.572 260.823 223.658 260.841 220.739C260.832 219.772 260.772 218.806 260.662 217.845C260.963 217.768 261.237 217.607 261.452 217.382C261.709 217.046 261.643 216.574 261.64 216.146C261.64 215.121 262.071 214.155 262.418 213.188C262.864 211.855 263.229 210.496 263.512 209.119C263.811 208.009 263.975 206.867 263.998 205.718C263.998 205.603 263.993 205.487 263.981 205.371C264.09 205.296 264.181 205.197 264.247 205.082C264.323 204.912 264.37 204.731 264.386 204.546C264.49 203.808 264.598 203.068 264.702 202.327C264.779 201.796 264.855 201.266 264.93 200.738L265.851 194.316C265.929 193.757 266.01 193.202 266.088 192.646L266.328 190.985C266.354 190.788 266.383 190.591 266.403 190.406C267.11 189.225 266.435 187.651 266.36 186.308ZM258.682 210.352C258.341 209.542 258.022 208.711 258.103 207.837H258.071C258.148 207.568 258.134 207.282 258.034 207.021C257.944 206.81 257.788 206.63 257.692 206.419C257.59 206.161 257.537 205.886 257.536 205.609C257.464 203.848 257.603 202.086 257.95 200.359C257.987 200.156 258.028 199.951 258.066 199.748C258.187 199.678 258.298 199.591 258.396 199.49C258.548 199.317 258.674 199.122 258.769 198.912C259.096 198.255 259.394 197.586 259.669 196.906C259.759 196.686 259.889 196.431 260.112 196.376C260.065 198.069 260.239 199.797 259.55 201.325C259.419 201.572 259.322 201.834 259.261 202.107C259.197 202.538 259.377 202.975 259.313 203.403C259.281 203.626 259.186 203.832 259.148 204.051C259.119 204.159 259.12 204.273 259.149 204.381C259.179 204.489 259.236 204.587 259.316 204.665C259.354 204.692 259.396 204.713 259.44 204.729C259.423 204.844 259.408 204.963 259.397 205.076C259.374 205.313 259.362 205.536 259.348 205.675C259.281 206.383 259.255 207.094 259.27 207.805C259.27 208.572 259.298 209.339 259.287 210.12C259.298 210.345 259.26 210.569 259.177 210.777C259.12 210.885 259.045 210.983 258.957 211.067C258.873 210.806 258.78 210.578 258.682 210.352Z" fill="url(#paint0_linear)"/>
<path d="M235.837 176.772C236.72 176.591 237.021 174.417 236.508 171.916C235.996 169.416 234.864 167.535 233.981 167.716C233.098 167.897 232.798 170.071 233.31 172.572C233.822 175.072 234.954 176.953 235.837 176.772Z" fill="#FBBEBE"/>
<path d="M249.323 269.794C249.085 270.511 249.323 271.408 249.965 271.799C250.226 271.938 250.506 272.036 250.796 272.089C251.188 272.2 251.595 272.255 252.003 272.254C252.503 272.23 252.984 272.034 253.484 271.964C253.542 271.95 253.603 271.958 253.655 271.987C253.68 272.014 253.699 272.046 253.71 272.081C253.721 272.116 253.724 272.154 253.719 272.19C253.724 272.474 253.746 272.759 253.783 273.041C253.783 273.103 253.797 273.164 253.823 273.22C253.849 273.277 253.886 273.327 253.933 273.368C254.005 273.402 254.085 273.415 254.165 273.408H255.733C255.769 272.03 255.618 270.654 255.285 269.316C255.263 269.214 255.224 269.116 255.169 269.027C255.036 268.881 254.861 268.78 254.668 268.737C254.285 268.578 253.87 268.506 253.456 268.526C252.949 268.593 252.527 268.92 252.095 269.192C251.664 269.464 251.077 269.704 250.553 269.565C250.029 269.426 249.592 268.989 249.323 269.794Z" fill="#3F3D56"/>
<path d="M226.292 268.523C225.851 268.995 225.31 269.363 224.708 269.6L224.442 269.727C224.405 269.741 224.374 269.766 224.352 269.799C224.347 269.822 224.347 269.845 224.352 269.868C224.357 269.89 224.367 269.911 224.381 269.93C224.603 270.272 224.93 270.533 225.314 270.673C225.697 270.812 226.116 270.823 226.506 270.702C226.678 270.659 226.838 270.576 226.972 270.459C227.192 270.198 227.319 269.869 227.33 269.527C227.418 269.174 227.403 268.804 227.287 268.459C226.885 267.554 226.737 267.964 226.292 268.523Z" fill="#FBBEBE"/>
<path d="M232.305 272.089C232.314 272.198 232.297 272.308 232.256 272.41C232.12 272.676 231.741 272.662 231.446 272.604C231.401 271.622 231.282 270.645 231.09 269.681C230.528 269.655 230.123 270.187 229.822 270.665L229.047 271.895C228.934 272.106 228.776 272.29 228.584 272.433C228.428 272.518 228.258 272.572 228.083 272.592C226.601 272.838 225.105 272.372 223.675 271.909C223.465 271.853 223.263 271.767 223.076 271.654C222.821 271.467 222.648 271.188 222.594 270.876C222.54 270.565 222.609 270.244 222.787 269.982C223.386 269.171 224.732 269.403 225.478 268.731C225.4 269.204 225.272 269.667 225.096 270.112C226.095 269.961 226.766 269.047 227.571 268.436C227.773 268.265 228.016 268.149 228.277 268.101C228.472 268.084 228.668 268.105 228.856 268.161C229.783 268.395 230.651 268.822 231.402 269.414C231.706 269.655 232.181 269.993 232.314 270.364C232.456 270.806 232.305 271.617 232.305 272.089Z" fill="#3F3D56"/>
<path d="M252.214 176.601C255.516 176.601 258.193 173.924 258.193 170.622C258.193 167.32 255.516 164.643 252.214 164.643C248.912 164.643 246.235 167.32 246.235 170.622C246.235 173.924 248.912 176.601 252.214 176.601Z" fill="#FBBEBE"/>
<path d="M263.993 205.924C263.969 207.067 263.806 208.203 263.51 209.307C263.226 210.678 262.861 212.031 262.416 213.359C262.071 214.323 261.64 215.289 261.643 216.311C261.643 216.736 261.712 217.208 261.452 217.544C261.22 217.779 260.928 217.947 260.607 218.027C260.447 218.069 260.299 218.149 260.175 218.259C260.052 218.369 259.956 218.507 259.895 218.661C259.623 218.255 259.42 217.807 259.293 217.335C258.774 215.746 258.292 214.147 257.846 212.54C257.805 212.447 257.787 212.346 257.794 212.245C257.802 212.145 257.833 212.047 257.886 211.961C257.96 211.897 258.045 211.849 258.138 211.819C258.435 211.698 258.707 211.524 258.94 211.304C259.049 211.207 259.14 211.09 259.206 210.96C259.29 210.752 259.329 210.529 259.319 210.306C259.319 209.539 259.319 208.775 259.299 208.008C259.287 207.3 259.314 206.591 259.38 205.886C259.38 205.747 259.406 205.525 259.429 205.287C259.472 204.833 259.559 204.306 259.805 204.13C260.173 203.884 261.272 204.214 261.689 204.271C262.407 204.37 263.136 204.486 263.837 204.622C263.938 205.048 263.991 205.485 263.993 205.924Z" fill="#3F3D56"/>
<path d="M239.85 177.316C239.619 177.779 239.063 178.002 238.635 178.294L237.167 179.301C237.069 179.39 236.955 179.457 236.83 179.5C236.705 179.543 236.573 179.56 236.441 179.55C236.322 179.506 236.212 179.439 236.119 179.352C236.026 179.265 235.952 179.16 235.9 179.044C235.901 179.036 235.901 179.028 235.9 179.021L235.596 178.511L234.149 176.086C233.988 175.869 233.894 175.609 233.88 175.339C233.88 175.215 233.923 175.099 233.935 174.975C233.939 174.625 233.838 174.282 233.645 173.991C233.53 173.774 233.298 173.594 233.304 173.351C233.293 173.032 233.348 172.713 233.466 172.416C233.618 172.141 233.836 171.909 234.1 171.739C234.236 171.641 234.375 171.548 234.519 171.45C234.596 171.397 234.681 171.358 234.771 171.334C235.011 171.285 235.249 171.484 235.492 171.493C236.537 172.193 236.939 173.519 237.761 174.474C238.224 175.018 238.27 175.435 238.794 175.921C238.878 175.996 238.959 176.077 239.037 176.161C239.141 176.274 239.228 176.401 239.298 176.537C239.393 176.786 239.969 177.079 239.85 177.316Z" fill="#3F3D56"/>
<path d="M250.113 176.604C250.544 177.516 250.88 178.517 250.755 179.518C250.73 179.79 250.644 180.052 250.504 180.285C250.087 180.925 249.213 181.041 248.452 181.078C248.291 181.065 248.13 181.083 247.977 181.133C247.824 181.183 247.682 181.263 247.56 181.368C247.459 181.515 247.409 181.693 247.419 181.872C247.429 182.051 247.498 182.222 247.615 182.357C247.86 182.618 248.164 182.817 248.501 182.936C249.705 183.466 251.004 183.903 252.312 183.781C252.92 183.723 253.51 183.547 254.115 183.457C254.775 183.386 255.437 183.349 256.101 183.347C256.888 183.318 257.672 183.24 258.456 183.162L260.534 182.957C260.648 182.958 260.758 182.918 260.844 182.844C260.997 182.664 260.801 182.401 260.61 182.265C259.507 181.449 258.103 180.887 257.475 179.66C257.186 179.081 257.096 178.393 256.882 177.767C256.668 177.142 256.326 176.578 256.193 175.941C256.122 175.383 256.09 174.82 256.098 174.257C256.105 173.689 255.898 173.14 255.519 172.717C255.105 172.332 254.506 172.234 253.945 172.211C252.561 172.15 251.088 172.48 250.107 173.455C249.844 173.719 249.618 174.034 249.346 174.271C249.074 174.509 248.703 174.578 248.883 174.891C249.062 175.203 249.415 175.397 249.606 175.672C249.8 175.969 249.969 176.28 250.113 176.604Z" fill="#FBBEBE"/>
<path d="M261.9 185.023C261.535 187.251 260.942 189.436 260.129 191.543C259.721 192.495 259.373 193.471 259.087 194.466C258.865 195.363 258.908 196.324 258.702 197.224C258.448 198.344 258.193 199.467 257.988 200.596C257.643 202.32 257.505 204.078 257.577 205.834C257.577 206.111 257.63 206.385 257.733 206.642C257.828 206.85 257.982 207.03 258.072 207.244C258.139 207.432 258.166 207.632 258.152 207.831C258.138 208.03 258.083 208.224 257.99 208.401C257.842 208.733 257.641 209.038 257.394 209.304C254.697 210.109 251.812 209.845 249.001 210.016C246.411 210.173 243.792 210.705 241.24 210.262C240.95 209.105 241.433 207.892 241.847 206.763C243.048 203.484 244.377 200.069 244.163 196.634C244.14 196.233 244.095 195.834 244.027 195.439C243.607 193.005 244.064 190.484 244.796 188.125C245.251 186.655 245.23 185.089 245.126 183.558C245.075 183.061 245.068 182.561 245.106 182.062C245.148 181.553 245.337 181.068 245.65 180.664C245.65 180.644 245.676 180.624 245.691 180.604C245.705 180.583 245.818 180.586 245.908 180.604C245.931 180.613 245.955 180.618 245.98 180.618C246.005 180.618 246.029 180.613 246.052 180.604L246.084 180.583C246.096 180.575 246.111 180.57 246.126 180.57C246.141 180.57 246.156 180.575 246.168 180.583C246.235 180.624 246.272 180.763 246.417 180.789C246.631 180.821 246.846 180.841 247.062 180.85C247.322 180.857 247.581 180.894 247.832 180.96H247.867C248.243 181.023 248.63 180.99 248.99 180.864C249.23 180.804 249.461 180.715 249.679 180.598C249.742 180.528 250.142 180.465 250.223 180.415C250.486 180.256 250.428 179.51 250.483 179.203C250.514 178.895 250.587 178.593 250.7 178.306C250.832 178.093 251.014 177.917 251.23 177.791C251.446 177.666 251.689 177.595 251.939 177.585C252.437 177.573 252.935 177.618 253.424 177.718C254.503 177.872 255.609 177.846 256.668 178.094C257.2 178.219 257.782 178.407 258.271 178.164C258.404 178.196 258.425 178.312 258.425 178.453C258.412 178.588 258.385 178.721 258.344 178.85C258.158 179.649 258.786 180.384 259.365 180.962C259.61 181.235 259.898 181.465 260.219 181.643C260.508 181.776 260.798 181.831 261.087 181.975C261.322 182.1 261.521 182.283 261.666 182.505C261.833 182.76 261.945 183.047 261.996 183.347C262.058 183.907 262.026 184.474 261.9 185.023Z" fill="#3F3D56"/>
<path opacity="0.1" d="M261.901 185.023C261.536 187.251 260.942 189.436 260.129 191.543C259.721 192.495 259.373 193.471 259.087 194.466C258.865 195.363 258.908 196.324 258.703 197.224C258.448 198.344 258.193 199.467 257.988 200.596C257.927 200.631 257.863 200.663 257.8 200.691C257.44 200.863 257.058 200.986 256.665 201.056C255.96 201.142 255.245 201.118 254.547 200.987L250.417 200.434C248.767 200.211 247.01 199.942 245.786 198.825C245.106 198.211 244.66 197.401 244.171 196.62C244.149 196.219 244.103 195.82 244.035 195.424C243.616 192.99 244.073 190.47 244.805 188.111C245.26 186.641 245.239 185.075 245.135 183.544C245.084 183.047 245.077 182.546 245.115 182.048C245.157 181.539 245.346 181.053 245.659 180.65C245.743 180.625 245.829 180.606 245.916 180.592C245.975 180.58 246.034 180.573 246.093 180.569H246.177C246.274 180.569 246.372 180.581 246.466 180.604C246.664 180.666 246.857 180.741 247.045 180.827H247.08C247.328 180.908 247.589 180.945 247.85 180.936C248.232 180.936 248.625 180.876 249.007 180.85C249.479 180.776 249.962 180.863 250.379 181.096C250.648 181.312 250.903 181.545 251.143 181.793C251.433 182.021 251.759 182.198 252.107 182.317C254.598 183.268 257.362 183.21 259.811 182.155C260.046 182.021 260.313 181.953 260.584 181.958C260.784 181.997 260.973 182.078 261.139 182.195C261.313 182.297 261.484 182.395 261.66 182.485C261.827 182.74 261.939 183.027 261.99 183.327C262.057 183.893 262.026 184.467 261.901 185.023Z" fill="black"/>
<path d="M264.421 183.107C263.269 182.755 262.161 182.269 261.122 181.66C260.955 181.543 260.766 181.463 260.566 181.423C260.295 181.419 260.027 181.487 259.791 181.619C257.343 182.674 254.58 182.732 252.089 181.782C251.742 181.661 251.416 181.484 251.126 181.258C250.885 181.01 250.63 180.777 250.362 180.56C249.409 179.944 248.093 180.667 247.028 180.271C246.839 180.186 246.646 180.112 246.449 180.048C245.607 179.837 244.75 180.676 243.922 180.421C243.614 181.258 243.387 182.123 243.242 183.003C243.124 184.014 243.062 185.03 243.054 186.047C243.054 186.658 243.025 187.269 243.054 187.879C243.156 187.896 243.253 187.934 243.34 187.99C243.427 188.046 243.501 188.12 243.558 188.206C243.596 188.307 243.611 188.415 243.603 188.523C243.595 188.63 243.564 188.735 243.511 188.829C242.906 190.383 242.293 191.954 241.375 193.346C242.022 193.732 242.622 194.19 243.164 194.712C244.177 195.783 244.675 197.285 245.769 198.275C247.002 199.389 248.758 199.661 250.399 199.881L254.529 200.434C255.229 200.565 255.944 200.589 256.65 200.506C257.042 200.435 257.423 200.311 257.782 200.139C258.017 200.041 258.231 199.899 258.413 199.722C258.566 199.549 258.691 199.354 258.786 199.143C259.113 198.489 259.411 197.821 259.686 197.143C259.782 196.903 259.927 196.622 260.187 196.602C261.721 195.219 263.168 193.801 264.702 192.417C265.318 191.906 265.871 191.323 266.349 190.681C267.11 189.555 266.418 187.96 266.349 186.6C266.34 186.252 266.297 185.906 266.218 185.567C265.969 184.58 265.385 183.399 264.421 183.107Z" fill="#D9EBFF"/>
<path opacity="0.1" d="M239.85 177.316C239.619 177.779 239.063 178.002 238.635 178.294L237.168 179.301C237.069 179.39 236.955 179.457 236.83 179.5C236.705 179.543 236.573 179.56 236.441 179.55C236.322 179.506 236.212 179.439 236.119 179.352C236.026 179.265 235.952 179.16 235.9 179.044C235.9 178.977 235.9 178.905 235.9 178.835C235.889 178.601 235.92 178.367 235.993 178.144C236.136 177.816 236.359 177.53 236.641 177.31C237.186 176.794 237.834 176.4 238.542 176.153C238.653 176.11 238.773 176.098 238.889 176.118C238.934 176.13 238.977 176.148 239.017 176.173C239.12 176.286 239.208 176.412 239.277 176.549C239.393 176.786 239.969 177.079 239.85 177.316Z" fill="black"/>
<path d="M243.306 180.366C242.814 180.343 242.412 179.987 242.053 179.649L240.956 178.63C240.882 178.568 240.818 178.496 240.765 178.416C240.706 178.303 240.661 178.184 240.632 178.06C240.399 177.475 240.035 176.952 239.567 176.532C239.485 176.428 239.376 176.35 239.251 176.306C239.133 176.284 239.012 176.296 238.901 176.341C238.192 176.587 237.544 176.982 237 177.498C236.718 177.718 236.495 178.005 236.351 178.332C236.279 178.555 236.247 178.789 236.259 179.023C236.265 179.788 236.437 180.542 236.762 181.235C236.811 181.342 236.866 181.449 236.924 181.553C237.311 182.191 237.767 182.784 238.285 183.321L238.973 184.091C239.651 184.849 240.328 185.608 241.063 186.305C241.326 186.586 241.646 186.809 242.001 186.959C242.179 187.032 242.373 187.054 242.563 187.023C242.753 186.993 242.931 186.91 243.077 186.785C243.216 186.625 243.32 186.438 243.384 186.236C243.83 185.078 244.252 183.874 244.278 182.627C244.284 182.127 244.263 181.628 244.215 181.13C244.171 180.604 243.798 180.398 243.306 180.366Z" fill="#D9EBFF"/>
<path d="M260.844 220.883C260.827 223.795 260.62 226.702 260.225 229.586C260.167 230.052 260.103 230.518 260.071 230.984C259.976 232.335 260.132 233.693 260.005 235.036C259.938 235.762 259.788 236.483 259.66 237.192C259.095 240.356 258.929 243.58 259.168 246.786C259.568 252.119 258.344 257.456 258.899 262.775C258.967 263.81 258.909 264.848 258.728 265.869C258.625 266.503 258.475 267.127 258.28 267.739C257.857 269.188 257.433 270.635 257.006 272.08C256.956 272.3 256.857 272.505 256.717 272.682C256.569 272.81 256.396 272.904 256.209 272.96C256.022 273.015 255.825 273.03 255.632 273.003C253.962 272.951 252.39 272.23 250.874 271.527C250.7 271.458 250.538 271.36 250.396 271.238C250.081 270.911 250.107 270.396 249.968 269.964C249.829 269.533 249.453 269.128 249.239 268.685C249.063 268.266 248.956 267.821 248.923 267.368C248.73 265.887 248.599 264.399 248.53 262.906C248.42 260.805 249.809 258.871 250.266 256.828C251.134 252.811 250.399 248.505 251.942 244.693C252.428 243.489 251.722 242.031 251.652 240.734C251.627 239.898 251.519 239.066 251.328 238.251C251.039 237.163 250.428 236.138 250.385 235.01C250.353 234.193 250.616 233.398 250.752 232.593C250.933 231.409 250.916 230.203 250.703 229.025C250.55 228.052 250.315 227.08 250.081 226.13L250.029 226.238C249.324 227.616 248.717 229.042 248.214 230.506C247.983 231.215 247.78 231.939 247.491 232.628C247.253 233.207 246.961 233.736 246.675 234.28C245.647 236.199 244.752 238.186 243.998 240.228C243.639 241.229 243.323 242.253 243.011 243.258L240.866 250.203C240.287 252.03 239.654 253.795 239.086 255.618C238.285 258.223 237.483 260.805 236.551 263.351C235.683 265.768 234.65 268.271 234.959 270.824C234.161 271.199 233.285 271.377 232.404 271.342C230.912 271.21 229.449 270.855 228.063 270.288C227.51 270.083 226.937 269.851 226.564 269.397C225.921 268.613 226.08 267.464 226.274 266.465C226.347 266.015 226.464 265.573 226.621 265.146C226.841 264.613 227.2 264.141 227.426 263.615C227.88 262.605 227.909 261.461 228.089 260.365C228.268 259.268 228.668 258.11 229.605 257.514C229.764 255.586 230.557 253.685 230.994 251.801C231.324 250.374 231.434 248.907 231.695 247.46C231.955 246.013 232.375 244.566 233.249 243.394C233.18 242.185 233.453 240.982 234.036 239.921C234.177 239.688 234.292 239.44 234.381 239.183C234.434 238.931 234.465 238.676 234.473 238.419C234.569 237.413 234.999 236.469 235.694 235.736C235.405 234.68 235.807 233.577 236.169 232.552C236.625 231.245 236.831 229.864 236.777 228.48C236.732 228.094 236.75 227.703 236.832 227.323C236.913 227.033 237.072 226.787 237.165 226.51C237.247 226.169 237.291 225.821 237.295 225.471C237.408 223.905 238.042 222.429 238.742 221.031C239.159 220.215 238.806 219.107 238.892 218.198C239.043 216.687 239.208 215.124 239.957 213.807C240.096 213.559 240.247 213.321 240.371 213.064C240.522 212.696 240.604 212.303 240.611 211.906C240.638 211.243 240.73 210.693 240.493 210.077C242.041 208.789 244.154 208.427 246.168 208.341C248.182 208.254 250.22 208.436 252.191 208.008C252.77 207.877 253.348 207.698 253.959 207.611C255.345 207.409 256.752 207.724 258.121 208.037C258.025 208.905 258.344 209.738 258.7 210.546C260.089 213.817 260.818 217.33 260.844 220.883Z" fill="#33313F"/>
<path opacity="0.1" d="M254.028 221.546L250.703 229.025C250.55 228.052 250.315 227.08 250.081 226.13L250.029 226.238V226.081L251.84 222.096L254.028 221.546Z" fill="black"/>
<path opacity="0.1" d="M263.993 205.924C263.801 206.067 263.572 206.153 263.333 206.17C262.966 206.183 262.6 206.133 262.25 206.022L259.646 205.371C259.564 205.351 259.485 205.323 259.408 205.287C259.452 204.833 259.539 204.306 259.785 204.13C260.152 203.884 261.252 204.214 261.669 204.271C262.386 204.37 263.116 204.486 263.816 204.622C263.925 205.048 263.984 205.485 263.993 205.924Z" fill="black"/>
<path d="M266.195 188.704C266.25 188.944 266.328 189.182 266.375 189.425C266.453 190.021 266.432 190.626 266.314 191.216L266.077 192.872L265.839 194.536L264.922 200.94L264.696 202.526L264.378 204.74C264.363 204.925 264.316 205.105 264.239 205.273C264.144 205.43 264.012 205.561 263.854 205.655C263.695 205.748 263.517 205.801 263.333 205.808C262.967 205.82 262.601 205.77 262.251 205.661L259.646 205.007C259.532 204.986 259.423 204.942 259.328 204.876C259.248 204.799 259.191 204.701 259.161 204.594C259.132 204.486 259.131 204.373 259.16 204.266C259.197 204.046 259.293 203.84 259.325 203.62C259.388 203.192 259.209 202.752 259.273 202.327C259.335 202.056 259.432 201.794 259.562 201.548C260.43 199.629 259.927 197.389 260.222 195.306C260.488 193.666 261.18 192.124 262.23 190.837C262.878 190.025 263.623 189.294 264.447 188.661C264.771 188.409 265.287 187.891 265.695 187.793C266.218 187.683 266.109 188.34 266.195 188.704Z" fill="#D9EBFF"/>
<path d="M246.483 163.774C246.292 164.382 246.59 165.051 246.454 165.67C246.307 166.353 245.664 166.828 245.482 167.514C245.193 168.558 246.078 169.511 246.726 170.379C249.129 173.603 248.813 178.065 247.991 181.999C247.33 185.154 246.415 188.251 245.256 191.26C244.895 192.194 244.495 193.144 243.783 193.844C245.114 193.462 246.53 193.077 247.864 193.448C249.554 193.916 251.013 195.557 252.726 195.184C253.756 194.955 254.48 194.041 255.406 193.534C257.142 192.6 259.235 193.187 261.171 193.488C261.588 193.587 262.025 193.564 262.43 193.424C262.74 193.258 263.002 193.016 263.194 192.721C264.058 191.613 264.575 190.274 264.681 188.872C264.727 188.174 264.624 187.474 264.379 186.819C264.134 186.164 263.753 185.569 263.26 185.072C262.849 184.684 262.357 184.372 262.042 183.914C261.735 183.38 261.571 182.776 261.564 182.161C261.336 178.977 262.111 175.727 261.313 172.648C261.023 171.551 260.552 170.5 260.424 169.377C260.265 167.98 260.644 166.483 260.088 165.204C259.651 164.188 258.688 163.468 257.649 163.097C256.61 162.727 255.498 162.623 254.396 162.518C252.81 162.385 247.146 161.705 246.483 163.774Z" fill="#33313F"/>
<g opacity="0.1">
<path opacity="0.1" d="M247.991 181.999C247.333 185.141 246.424 188.225 245.271 191.222C245.471 190.826 245.639 190.409 245.798 189.995C246.958 186.987 247.873 183.89 248.533 180.734C249.357 176.798 249.673 172.341 247.271 169.114C246.692 168.344 245.948 167.511 245.974 166.608C245.76 166.881 245.594 167.188 245.482 167.517C245.193 168.561 246.078 169.514 246.727 170.382C249.129 173.603 248.813 178.066 247.991 181.999Z" fill="black"/>
<path opacity="0.1" d="M246.489 165.378C246.722 165.089 246.895 164.758 246.999 164.403C247.043 163.973 247.032 163.539 246.964 163.112C246.741 163.28 246.574 163.51 246.484 163.775C246.313 164.287 246.51 164.842 246.489 165.378Z" fill="black"/>
<path opacity="0.1" d="M263.738 191.448C263.547 191.742 263.284 191.983 262.974 192.148C262.57 192.291 262.132 192.313 261.715 192.212C259.779 191.922 257.663 191.326 255.95 192.261C255.021 192.765 254.301 193.679 253.267 193.911C251.557 194.293 250.098 192.652 248.408 192.174C247.21 191.841 245.948 192.116 244.741 192.464C244.502 192.975 244.178 193.443 243.783 193.847C245.115 193.465 246.53 193.08 247.864 193.451C249.554 193.919 251.013 195.56 252.726 195.187C253.756 194.958 254.48 194.044 255.406 193.537C257.143 192.603 259.235 193.19 261.171 193.491C261.588 193.589 262.025 193.567 262.43 193.427C262.74 193.261 263.003 193.019 263.194 192.724C263.719 192.032 264.124 191.258 264.392 190.432C264.199 190.786 263.98 191.125 263.738 191.448Z" fill="black"/>
</g>
</g>
<defs>
<linearGradient id="paint0_linear" x1="222.439" y1="217.665" x2="266.719" y2="217.665" gradientUnits="userSpaceOnUse">
<stop stop-color="#808080" stop-opacity="0.25"/>
<stop offset="0.54" stop-color="#808080" stop-opacity="0.12"/>
<stop offset="1" stop-color="#808080" stop-opacity="0.1"/>
</linearGradient>
<clipPath id="clip0">
<rect width="337.5" height="233" fill="white" transform="translate(0 40.4257)"/>
</clipPath>
</defs>
</svg>
