<svg width="897" height="1024" viewBox="0 0 897 1024" fill="none" xmlns="http://www.w3.org/2000/svg">
<path d="M91.5 577.828C50.8333 554.349 50.8333 495.651 91.5 472.172L852.75 32.6645C893.417 9.18563 944.25 38.5343 944.25 85.4921L944.25 964.508C944.25 1011.47 893.417 1040.81 852.75 1017.34L91.5 577.828Z" fill="#B3D6FF"/>
<path d="M157.5 421.328C116.833 397.849 116.833 339.151 157.5 315.672L918.75 -123.835C959.417 -147.314 1010.25 -117.966 1010.25 -71.0079L1010.25 808.008C1010.25 854.966 959.417 884.314 918.75 860.835L157.5 421.328Z" fill="#80BAFF"/>
<path opacity="0.5" fill-rule="evenodd" clip-rule="evenodd" d="M598.765 266.785C630.003 250.482 671.424 232.296 701.431 250.767C731.705 269.403 715.8 319.986 734.405 350.279C753.8 381.861 808.929 391.569 810.639 428.591C812.322 465.007 768.035 485.843 741.839 511.194C721.595 530.785 696.708 542.534 674.712 560.134C648.149 581.388 632.45 630.432 598.765 625.677C562.838 620.607 563.623 561.629 534.263 540.312C509.544 522.364 466.676 539.715 447.555 515.892C429.014 492.791 445.632 458.194 444.593 428.591C443.51 397.76 419.084 359.086 441.296 337.676C466.31 313.566 511.965 347.38 543.644 333.118C570.313 321.112 572.837 280.317 598.765 266.785Z" fill="#B3D6FF"/>
<g clip-path="url(#clip0)">
<path opacity="0.1" d="M613.51 307.402C571.636 307.458 531.331 295.587 492.779 282.401C454.227 269.214 415.971 254.447 374.876 248.19C348.447 244.168 318.393 244.538 297.733 259.142C277.847 273.191 272.088 296.445 269.309 317.928C267.22 334.089 266.256 351.051 274.082 365.835C279.516 376.097 288.815 384.556 295.369 394.337C318.247 428.363 304.489 471.827 282.255 506.643C271.83 522.978 259.618 538.635 251.736 555.906C243.854 573.176 240.622 592.76 248.661 609.807C256.627 626.702 274.62 638.965 293.929 647.339C333.142 664.38 378.798 668.033 423.226 669.439C521.572 672.559 620.109 666.195 718.382 659.831C754.749 657.479 791.279 655.109 826.896 648.292C846.67 644.51 867.033 638.897 881.055 626.596C898.852 610.978 902.493 585.478 889.541 567.149C867.823 536.406 810.555 530.608 794.982 497.344C786.394 479.032 793.8 458.03 804.707 440.379C828.1 402.505 868.366 368.58 869.044 326.218C869.509 297.128 848.569 268.749 817.294 256.106C784.512 242.863 739.815 246.269 716.847 270.95C693.23 296.377 650.482 307.363 613.51 307.402Z" fill="#6C63FF"/>
<path d="M800.001 607.521C800.001 607.521 793.117 602.978 786.293 606.211C786.293 606.211 788.394 610.255 797.032 609.874L800.001 607.521Z" fill="#6C63FF"/>
<path d="M800.875 607.762C800.875 607.762 802.97 615.739 797.716 621.168C797.716 621.168 794.556 617.879 797.716 609.824L800.875 607.762Z" fill="#6C63FF"/>
<path d="M809.435 600.105C809.435 600.105 808.925 593.321 793.604 595.573C793.604 595.573 793.531 599.948 798.909 602.02C804.287 604.093 806.751 602.345 809.435 600.105Z" fill="#6C63FF"/>
<path d="M810.398 600.06C810.398 600.06 816.874 602.138 811.099 616.507C811.099 616.507 806.824 615.555 806.057 609.835C805.289 604.116 807.564 602.144 810.398 600.06Z" fill="#6C63FF"/>
<path d="M819.048 590.436C819.048 590.436 819.927 579.271 804.27 580.414C804.27 580.414 803.15 590.497 816.286 593.119L819.048 590.436Z" fill="#6C63FF"/>
<path d="M829.394 577.832C829.394 577.832 827.249 565.177 811.597 568.947C811.597 568.947 811.541 579.888 826.84 580.845L829.394 577.832Z" fill="#6C63FF"/>
<path d="M836.957 564.802C836.957 564.802 833.36 552.478 817.854 556.164C817.854 556.164 821.546 567.25 835.926 567.076L836.957 564.802Z" fill="#6C63FF"/>
<path d="M844.138 552.074C844.138 552.074 840.626 539.285 825.652 543.111C825.652 543.111 830.649 555.262 843.147 554.237L844.138 552.074Z" fill="#6C63FF"/>
<path d="M848.765 539.986C848.765 539.986 846.065 524.345 832.105 527.807C832.105 527.807 836.161 542.036 847.74 542.265L848.765 539.986Z" fill="#6C63FF"/>
<path d="M853.107 525.381C853.107 525.381 849.863 509.618 835.741 514.178C835.741 514.178 841.276 529.079 852.104 527.538L853.107 525.381Z" fill="#6C63FF"/>
<path d="M855.773 511.791C855.773 511.791 850.625 496.022 839.707 496.448C839.707 496.448 844.967 513.102 854.86 514.934L855.773 511.791Z" fill="#6C63FF"/>
<path d="M857.499 498.526C857.499 498.526 851.897 479.547 843.012 481.009C843.012 481.009 846.889 495.518 857.185 501.484L857.499 498.526Z" fill="#6C63FF"/>
<path d="M858.473 482.701C858.473 482.701 853.219 466.887 844.469 466.254C844.469 466.254 848.043 481.816 858.3 486.813L858.473 482.701Z" fill="#6C63FF"/>
<path d="M859.532 467.934C859.532 467.934 852.984 452.104 847.208 451.745C847.208 451.745 850.054 467.335 858.972 470.534L859.532 467.934Z" fill="#6C63FF"/>
<path d="M860.255 454.199C860.255 454.199 856.227 437.007 850.44 435.578C850.44 435.578 851.23 449.644 859.672 455.487L860.255 454.199Z" fill="#6C63FF"/>
<path d="M862.44 436.205C862.44 436.205 858.205 422.498 853.516 420.408C853.516 420.408 854.44 436.57 861.358 439.555L862.44 436.205Z" fill="#6C63FF"/>
<path d="M864.249 424.442L865.1 400.275C865.1 400.275 856.333 418.492 863.616 428.682L864.249 424.442Z" fill="#6C63FF"/>
<path d="M871.016 400.404C871.016 400.404 877.329 382.758 878.859 381.772C878.859 381.772 866.478 393.222 867.688 407.95L871.016 400.404Z" fill="#6C63FF"/>
<path d="M819.473 590.352C819.473 590.352 830.576 588.901 830.246 604.592C830.246 604.592 820.213 606.227 816.936 593.248L819.473 590.352Z" fill="#6C63FF"/>
<path d="M829.921 577.406C829.921 577.406 842.749 577.367 841.685 593.427C841.685 593.427 830.912 595.354 827.361 580.442L829.921 577.406Z" fill="#6C63FF"/>
<path d="M837.08 565.838C837.08 565.838 848.726 560.376 856.177 574.476C856.177 574.476 845.421 579.025 836.049 568.118L837.08 565.838Z" fill="#6C63FF"/>
<path d="M844.396 552.192C844.396 552.192 856.322 546.383 863.325 560.152C863.325 560.152 850.9 564.432 843.41 554.371L844.396 552.192Z" fill="#6C63FF"/>
<path d="M848.614 540.327C848.614 540.327 860.092 529.364 869.251 540.45C869.251 540.45 857.527 549.475 848.088 542.77L848.614 540.327Z" fill="#6C63FF"/>
<path d="M852.457 525.006C852.457 525.006 864.002 513.802 873.089 525.522C873.089 525.522 860.132 534.725 852.042 527.359L852.457 525.006Z" fill="#6C63FF"/>
<path d="M854.614 511.343C854.614 511.343 863.509 497.339 873.985 500.464C873.985 500.464 864.753 515.293 854.715 514.631L854.614 511.343Z" fill="#6C63FF"/>
<path d="M857.236 498.437C857.236 498.437 866.199 480.802 874.68 483.872C874.68 483.872 868.215 497.428 857.006 501.411L857.236 498.437Z" fill="#6C63FF"/>
<path d="M857.857 481.782C857.857 481.782 867.072 467.901 875.705 469.598C875.705 469.598 868.17 483.676 856.961 485.799L857.857 481.782Z" fill="#6C63FF"/>
<path d="M858.574 467.626C858.574 467.626 865.717 452.048 871.52 451.941C871.52 451.941 868.092 467.408 859.056 470.27L858.574 467.626Z" fill="#6C63FF"/>
<path d="M859.975 453.863C859.975 453.863 867.912 438.088 873.878 438.054C873.878 438.054 869.817 451.543 860.238 455.246L859.975 453.863Z" fill="#6C63FF"/>
<path d="M861.168 437.191C861.168 437.191 867.106 424.139 872.024 422.66C872.024 422.66 869.055 438.569 861.823 440.653L861.168 437.191Z" fill="#6C63FF"/>
<path d="M864.955 423.965L878.226 403.748C878.226 403.748 874.825 423.691 863.017 427.836L864.955 423.965Z" fill="#6C63FF"/>
<path d="M874.063 402.034C874.063 402.034 889.485 391.391 890.046 389.671C890.046 389.671 882.203 404.577 867.638 407.21L874.063 402.034Z" fill="#6C63FF"/>
<path d="M874.988 397.245C874.988 397.245 892.695 380.221 897.216 380.237C897.216 380.237 882.612 380.904 874.562 396.337L874.988 397.245Z" fill="#6C63FF"/>
<path d="M861.341 439.718L861.986 439.802C865.313 413.759 870.164 398.348 875.643 396.46L875.43 395.844C869.621 397.861 864.736 413.036 861.341 439.718Z" fill="#444053"/>
<path d="M856.446 501.999L857.42 502.078C857.628 499.647 857.784 497.159 857.891 494.678C858.821 473.122 860.26 453.325 862.154 438.485L861.594 437.785C859.695 452.658 857.846 473.049 856.916 494.638C856.81 497.103 856.653 499.579 856.446 501.999Z" fill="#444053"/>
<path d="M781.829 619.946C781.997 619.874 799.155 612.21 816.964 593.937C827.397 583.235 836.067 570.944 842.648 557.525C850.883 540.759 855.902 520.155 857.583 500.139L856.569 500.616C852.788 545.543 832.335 576.241 816.073 592.962C798.438 611.073 781.47 618.658 781.302 618.731L781.829 619.946Z" fill="#444053"/>
<path d="M826.257 293.745H287.986C286.714 293.745 285.494 294.25 284.595 295.149C283.696 296.048 283.191 297.268 283.191 298.54V312.511H831.052V298.54C831.052 297.268 830.547 296.048 829.648 295.149C828.748 294.25 827.529 293.745 826.257 293.745Z" fill="#3F3D56"/>
<path d="M283.191 312.511V626.91C283.191 629.474 284.209 631.933 286.022 633.746C287.836 635.56 290.295 636.578 292.859 636.578H821.383C823.948 636.578 826.407 635.56 828.22 633.746C830.034 631.933 831.052 629.474 831.052 626.91V312.511H283.191Z" fill="white"/>
<path opacity="0.8" d="M291.868 305.228C293.105 305.228 294.109 304.225 294.109 302.988C294.109 301.75 293.105 300.747 291.868 300.747C290.63 300.747 289.627 301.75 289.627 302.988C289.627 304.225 290.63 305.228 291.868 305.228Z" fill="#FA5959"/>
<path opacity="0.8" d="M298.03 305.228C299.267 305.228 300.271 304.225 300.271 302.988C300.271 301.75 299.267 300.747 298.03 300.747C296.792 300.747 295.789 301.75 295.789 302.988C295.789 304.225 296.792 305.228 298.03 305.228Z" fill="#FED253"/>
<path opacity="0.8" d="M304.192 305.228C305.429 305.228 306.433 304.225 306.433 302.988C306.433 301.75 305.429 300.747 304.192 300.747C302.954 300.747 301.951 301.75 301.951 302.988C301.951 304.225 302.954 305.228 304.192 305.228Z" fill="#8CCF4D"/>
<path opacity="0.05" d="M774.423 364.933H334.117V558.544H774.423V364.933Z" fill="black"/>
<path d="M771.062 366.401H337.478V555.744H771.062V366.401Z" fill="#3F3D56"/>
<path d="M455.677 415.131C447.146 415.131 438.807 417.661 431.713 422.401C424.62 427.14 419.091 433.877 415.827 441.759C412.562 449.641 411.708 458.313 413.372 466.681C415.036 475.048 419.144 482.734 425.177 488.766C431.209 494.799 438.895 498.907 447.262 500.571C455.63 502.235 464.302 501.381 472.184 498.117C480.066 494.852 486.803 489.323 491.542 482.23C496.282 475.136 498.812 466.797 498.812 458.266C498.812 452.601 497.696 446.992 495.528 441.759C493.361 436.526 490.183 431.77 486.178 427.765C482.173 423.76 477.417 420.582 472.184 418.415C466.951 416.247 461.342 415.131 455.677 415.131ZM463.414 459.302V479.726H448.165V459.302C446.055 457.705 444.5 455.485 443.719 452.956C442.939 450.428 442.972 447.718 443.814 445.209C444.657 442.7 446.266 440.519 448.415 438.974C450.563 437.429 453.143 436.598 455.789 436.598C458.436 436.598 461.016 437.429 463.164 438.974C465.313 440.519 466.922 442.7 467.764 445.209C468.607 447.718 468.64 450.428 467.86 452.956C467.079 455.485 465.524 457.705 463.414 459.302Z" fill="#6C63FF"/>
<path opacity="0.05" d="M455.677 415.131C447.146 415.131 438.807 417.661 431.713 422.401C424.62 427.14 419.091 433.877 415.827 441.759C412.562 449.641 411.708 458.313 413.372 466.681C415.036 475.048 419.144 482.734 425.177 488.766C431.209 494.799 438.895 498.907 447.262 500.571C455.63 502.235 464.302 501.381 472.184 498.117C480.066 494.852 486.803 489.323 491.542 482.23C496.282 475.136 498.812 466.797 498.812 458.266C498.812 452.601 497.696 446.992 495.528 441.759C493.361 436.526 490.183 431.77 486.178 427.765C482.173 423.76 477.417 420.582 472.184 418.415C466.951 416.247 461.342 415.131 455.677 415.131ZM463.414 459.302V479.726H448.165V459.302C446.055 457.705 444.5 455.485 443.719 452.956C442.939 450.428 442.972 447.718 443.814 445.209C444.657 442.7 446.266 440.519 448.415 438.974C450.563 437.429 453.143 436.598 455.789 436.598C458.436 436.598 461.016 437.429 463.164 438.974C465.313 440.519 466.922 442.7 467.764 445.209C468.607 447.718 468.64 450.428 467.86 452.956C467.079 455.485 465.524 457.705 463.414 459.302Z" fill="black"/>
<path d="M455.677 402.807C444.709 402.807 433.986 406.06 424.866 412.154C415.746 418.247 408.638 426.909 404.441 437.043C400.243 447.176 399.145 458.327 401.285 469.085C403.425 479.843 408.706 489.725 416.462 497.481C424.218 505.237 434.1 510.519 444.858 512.658C455.616 514.798 466.767 513.7 476.9 509.502C487.034 505.305 495.696 498.197 501.789 489.077C507.883 479.957 511.136 469.234 511.136 458.266C511.136 443.557 505.293 429.451 494.892 419.051C484.492 408.65 470.386 402.807 455.677 402.807ZM465.621 459.599V485.855H446.014V459.599C443.3 457.545 441.3 454.69 440.295 451.438C439.291 448.186 439.334 444.701 440.417 441.474C441.5 438.248 443.57 435.443 446.333 433.456C449.096 431.468 452.414 430.399 455.817 430.399C459.221 430.399 462.539 431.468 465.302 433.456C468.065 435.443 470.135 438.248 471.218 441.474C472.301 444.701 472.344 448.186 471.34 451.438C470.335 454.69 468.335 457.545 465.621 459.599Z" fill="#6C63FF"/>
<path d="M713.363 450.989H534.104V470.035H713.363V450.989Z" fill="white"/>
<path d="M713.363 485.72H674.71V504.767H713.363V485.72Z" fill="#6C63FF"/>
<path d="M551.749 460.226H548.506L551.391 457.347C551.443 457.294 551.471 457.222 551.471 457.148C551.471 457.074 551.443 457.002 551.391 456.949C551.365 456.923 551.334 456.902 551.3 456.888C551.266 456.874 551.229 456.866 551.192 456.866C551.155 456.866 551.118 456.874 551.084 456.888C551.05 456.902 551.019 456.923 550.993 456.949L548.108 459.834V456.585C548.108 456.511 548.079 456.44 548.026 456.387C547.974 456.334 547.902 456.305 547.828 456.305C547.754 456.306 547.684 456.336 547.632 456.389C547.579 456.441 547.549 456.511 547.548 456.585V459.834L544.669 456.932C544.643 456.906 544.612 456.885 544.577 456.871C544.543 456.857 544.507 456.85 544.47 456.85C544.433 456.85 544.396 456.857 544.362 456.871C544.328 456.885 544.297 456.906 544.271 456.932C544.219 456.986 544.19 457.057 544.19 457.131C544.19 457.205 544.219 457.277 544.271 457.33L547.156 460.209H543.907C543.833 460.211 543.763 460.241 543.71 460.293C543.658 460.345 543.628 460.416 543.627 460.49C543.627 460.564 543.656 460.635 543.709 460.688C543.761 460.74 543.833 460.77 543.907 460.77H547.156L544.271 463.655C544.219 463.708 544.19 463.779 544.19 463.853C544.19 463.928 544.219 463.999 544.271 464.052C544.325 464.103 544.396 464.131 544.47 464.131C544.544 464.131 544.615 464.103 544.669 464.052L547.548 461.167V464.411C547.548 464.485 547.578 464.556 547.63 464.609C547.683 464.661 547.754 464.691 547.828 464.691C547.902 464.691 547.974 464.661 548.026 464.609C548.079 464.556 548.108 464.485 548.108 464.411V461.167L550.993 464.052C551.047 464.103 551.118 464.131 551.192 464.131C551.266 464.131 551.337 464.103 551.391 464.052C551.443 463.999 551.471 463.928 551.471 463.853C551.471 463.779 551.443 463.708 551.391 463.655L548.506 460.77H551.749C551.824 460.77 551.895 460.74 551.947 460.688C552 460.635 552.029 460.564 552.029 460.49C552.025 460.418 551.994 460.351 551.942 460.302C551.89 460.253 551.821 460.226 551.749 460.226Z" fill="#6C63FF"/>
<path d="M563.513 460.226H560.27L563.155 457.347C563.206 457.294 563.235 457.222 563.235 457.148C563.235 457.074 563.206 457.002 563.155 456.949C563.129 456.923 563.098 456.902 563.064 456.888C563.03 456.874 562.993 456.866 562.956 456.866C562.919 456.866 562.882 456.874 562.848 456.888C562.814 456.902 562.783 456.923 562.757 456.949L559.872 459.834V456.585C559.872 456.511 559.843 456.44 559.79 456.387C559.738 456.334 559.666 456.305 559.592 456.305C559.518 456.306 559.448 456.336 559.396 456.389C559.343 456.441 559.313 456.511 559.312 456.585V459.834L556.433 456.932C556.407 456.906 556.376 456.885 556.341 456.871C556.307 456.857 556.271 456.85 556.234 456.85C556.197 456.85 556.16 456.857 556.126 456.871C556.092 456.885 556.061 456.906 556.035 456.932C555.983 456.986 555.954 457.057 555.954 457.131C555.954 457.205 555.983 457.277 556.035 457.33L558.92 460.209H555.671C555.597 460.211 555.526 460.241 555.474 460.293C555.422 460.345 555.392 460.416 555.391 460.49C555.391 460.564 555.42 460.635 555.473 460.688C555.525 460.74 555.596 460.77 555.671 460.77H558.92L556.035 463.655C555.983 463.708 555.954 463.779 555.954 463.853C555.954 463.928 555.983 463.999 556.035 464.052C556.089 464.103 556.16 464.131 556.234 464.131C556.308 464.131 556.379 464.103 556.433 464.052L559.312 461.167V464.411C559.312 464.485 559.341 464.556 559.394 464.609C559.446 464.661 559.518 464.691 559.592 464.691C559.666 464.691 559.738 464.661 559.79 464.609C559.843 464.556 559.872 464.485 559.872 464.411V461.167L562.757 464.052C562.811 464.103 562.882 464.131 562.956 464.131C563.03 464.131 563.101 464.103 563.155 464.052C563.206 463.999 563.235 463.928 563.235 463.853C563.235 463.779 563.206 463.708 563.155 463.655L560.27 460.77H563.513C563.588 460.77 563.659 460.74 563.711 460.688C563.764 460.635 563.793 460.564 563.793 460.49C563.789 460.418 563.758 460.351 563.706 460.302C563.654 460.253 563.585 460.226 563.513 460.226Z" fill="#6C63FF"/>
<path d="M575.277 460.226H572.034L574.919 457.347C574.97 457.294 574.999 457.222 574.999 457.148C574.999 457.074 574.97 457.002 574.919 456.949C574.893 456.923 574.862 456.902 574.828 456.888C574.793 456.874 574.757 456.866 574.72 456.866C574.683 456.866 574.646 456.874 574.612 456.888C574.578 456.902 574.547 456.923 574.521 456.949L571.636 459.834V456.585C571.636 456.511 571.606 456.44 571.554 456.387C571.501 456.334 571.43 456.305 571.356 456.305C571.282 456.306 571.212 456.336 571.159 456.389C571.107 456.441 571.077 456.511 571.076 456.585V459.834L568.196 456.932C568.17 456.906 568.139 456.885 568.105 456.871C568.071 456.857 568.035 456.85 567.998 456.85C567.961 456.85 567.924 456.857 567.89 456.871C567.856 456.885 567.825 456.906 567.799 456.932C567.747 456.986 567.718 457.057 567.718 457.131C567.718 457.205 567.747 457.277 567.799 457.33L570.684 460.209H567.435C567.361 460.211 567.29 460.241 567.238 460.293C567.186 460.345 567.156 460.416 567.155 460.49C567.155 460.564 567.184 460.635 567.237 460.688C567.289 460.74 567.36 460.77 567.435 460.77H570.684L567.799 463.655C567.747 463.708 567.718 463.779 567.718 463.853C567.718 463.928 567.747 463.999 567.799 464.052C567.853 464.103 567.924 464.131 567.998 464.131C568.071 464.131 568.143 464.103 568.196 464.052L571.076 461.167V464.411C571.076 464.485 571.105 464.556 571.158 464.609C571.21 464.661 571.282 464.691 571.356 464.691C571.43 464.691 571.501 464.661 571.554 464.609C571.606 464.556 571.636 464.485 571.636 464.411V461.167L574.521 464.052C574.575 464.103 574.646 464.131 574.72 464.131C574.794 464.131 574.865 464.103 574.919 464.052C574.97 463.999 574.999 463.928 574.999 463.853C574.999 463.779 574.97 463.708 574.919 463.655L572.034 460.77H575.277C575.352 460.77 575.423 460.74 575.475 460.688C575.528 460.635 575.557 460.564 575.557 460.49C575.553 460.418 575.522 460.351 575.47 460.302C575.417 460.253 575.349 460.226 575.277 460.226Z" fill="#6C63FF"/>
<path d="M587.041 460.226H583.798L586.683 457.347C586.734 457.294 586.763 457.222 586.763 457.148C586.763 457.074 586.734 457.002 586.683 456.949C586.657 456.923 586.626 456.902 586.591 456.888C586.557 456.874 586.521 456.866 586.484 456.866C586.447 456.866 586.41 456.874 586.376 456.888C586.342 456.902 586.311 456.923 586.285 456.949L583.4 459.834V456.585C583.4 456.511 583.37 456.44 583.318 456.387C583.265 456.334 583.194 456.305 583.12 456.305C583.046 456.306 582.976 456.336 582.923 456.389C582.871 456.441 582.841 456.511 582.84 456.585V459.834L579.96 456.932C579.934 456.906 579.903 456.885 579.869 456.871C579.835 456.857 579.798 456.85 579.762 456.85C579.725 456.85 579.688 456.857 579.654 456.871C579.62 456.885 579.589 456.906 579.563 456.932C579.511 456.986 579.482 457.057 579.482 457.131C579.482 457.205 579.511 457.277 579.563 457.33L582.448 460.209H579.199C579.125 460.211 579.054 460.241 579.002 460.293C578.95 460.345 578.92 460.416 578.918 460.49C578.918 460.564 578.948 460.635 579 460.688C579.053 460.74 579.124 460.77 579.199 460.77H582.448L579.563 463.655C579.511 463.708 579.482 463.779 579.482 463.853C579.482 463.928 579.511 463.999 579.563 464.052C579.617 464.103 579.688 464.131 579.762 464.131C579.835 464.131 579.906 464.103 579.96 464.052L582.84 461.167V464.411C582.84 464.485 582.869 464.556 582.922 464.609C582.974 464.661 583.046 464.691 583.12 464.691C583.194 464.691 583.265 464.661 583.318 464.609C583.37 464.556 583.4 464.485 583.4 464.411V461.167L586.285 464.052C586.339 464.103 586.41 464.131 586.484 464.131C586.558 464.131 586.629 464.103 586.683 464.052C586.734 463.999 586.763 463.928 586.763 463.853C586.763 463.779 586.734 463.708 586.683 463.655L583.798 460.77H587.041C587.115 460.77 587.187 460.74 587.239 460.688C587.292 460.635 587.321 460.564 587.321 460.49C587.317 460.418 587.286 460.351 587.233 460.302C587.181 460.253 587.113 460.226 587.041 460.226Z" fill="#6C63FF"/>
<path d="M598.805 460.226H595.561L598.446 457.347C598.498 457.294 598.527 457.222 598.527 457.148C598.527 457.074 598.498 457.002 598.446 456.949C598.42 456.923 598.389 456.902 598.355 456.888C598.321 456.874 598.284 456.866 598.247 456.866C598.21 456.866 598.174 456.874 598.14 456.888C598.106 456.902 598.075 456.923 598.049 456.949L595.164 459.834V456.585C595.164 456.511 595.134 456.44 595.082 456.387C595.029 456.334 594.958 456.305 594.884 456.305C594.81 456.306 594.739 456.336 594.687 456.389C594.635 456.441 594.605 456.511 594.603 456.585V459.834L591.724 456.932C591.698 456.906 591.667 456.885 591.633 456.871C591.599 456.857 591.562 456.85 591.525 456.85C591.488 456.85 591.452 456.857 591.417 456.871C591.383 456.885 591.352 456.906 591.326 456.932C591.275 456.986 591.246 457.057 591.246 457.131C591.246 457.205 591.275 457.277 591.326 457.33L594.211 460.209H590.962C590.888 460.211 590.818 460.241 590.766 460.293C590.714 460.345 590.684 460.416 590.682 460.49C590.682 460.564 590.712 460.635 590.764 460.688C590.817 460.74 590.888 460.77 590.962 460.77H594.211L591.326 463.655C591.275 463.708 591.246 463.779 591.246 463.853C591.246 463.928 591.275 463.999 591.326 464.052C591.38 464.103 591.451 464.131 591.525 464.131C591.599 464.131 591.67 464.103 591.724 464.052L594.603 461.167V464.411C594.603 464.485 594.633 464.556 594.685 464.609C594.738 464.661 594.809 464.691 594.884 464.691C594.958 464.691 595.029 464.661 595.082 464.609C595.134 464.556 595.164 464.485 595.164 464.411V461.167L598.049 464.052C598.103 464.103 598.174 464.131 598.247 464.131C598.321 464.131 598.392 464.103 598.446 464.052C598.498 463.999 598.527 463.928 598.527 463.853C598.527 463.779 598.498 463.708 598.446 463.655L595.561 460.77H598.805C598.879 460.77 598.95 460.74 599.003 460.688C599.055 460.635 599.085 460.564 599.085 460.49C599.081 460.418 599.049 460.351 598.997 460.302C598.945 460.253 598.876 460.226 598.805 460.226Z" fill="#6C63FF"/>
<path d="M610.569 460.226H607.325L610.21 457.347C610.262 457.294 610.291 457.222 610.291 457.148C610.291 457.074 610.262 457.002 610.21 456.949C610.184 456.923 610.153 456.902 610.119 456.888C610.085 456.874 610.049 456.866 610.012 456.866C609.975 456.866 609.938 456.874 609.904 456.888C609.87 456.902 609.839 456.923 609.813 456.949L606.928 459.834V456.585C606.928 456.511 606.898 456.44 606.846 456.387C606.793 456.334 606.722 456.305 606.648 456.305C606.574 456.306 606.503 456.336 606.451 456.389C606.399 456.441 606.369 456.511 606.368 456.585V459.834L603.488 456.932C603.462 456.906 603.431 456.885 603.397 456.871C603.363 456.857 603.326 456.85 603.289 456.85C603.252 456.85 603.216 456.857 603.182 456.871C603.148 456.885 603.117 456.906 603.09 456.932C603.039 456.986 603.01 457.057 603.01 457.131C603.01 457.205 603.039 457.277 603.09 457.33L605.975 460.209H602.726C602.653 460.211 602.582 460.241 602.53 460.293C602.478 460.345 602.448 460.416 602.446 460.49C602.446 460.564 602.476 460.635 602.528 460.688C602.581 460.74 602.652 460.77 602.726 460.77H605.975L603.09 463.655C603.039 463.708 603.01 463.779 603.01 463.853C603.01 463.928 603.039 463.999 603.09 464.052C603.144 464.103 603.216 464.131 603.289 464.131C603.363 464.131 603.434 464.103 603.488 464.052L606.368 461.167V464.411C606.368 464.485 606.397 464.556 606.45 464.609C606.502 464.661 606.573 464.691 606.648 464.691C606.722 464.691 606.793 464.661 606.846 464.609C606.898 464.556 606.928 464.485 606.928 464.411V461.167L609.813 464.052C609.867 464.103 609.938 464.131 610.012 464.131C610.085 464.131 610.157 464.103 610.21 464.052C610.262 463.999 610.291 463.928 610.291 463.853C610.291 463.779 610.262 463.708 610.21 463.655L607.325 460.77H610.569C610.643 460.77 610.714 460.74 610.767 460.688C610.82 460.635 610.849 460.564 610.849 460.49C610.845 460.418 610.813 460.351 610.761 460.302C610.709 460.253 610.64 460.226 610.569 460.226Z" fill="#6C63FF"/>
<path d="M622.333 460.226H619.089L621.974 457.347C622.026 457.294 622.055 457.222 622.055 457.148C622.055 457.074 622.026 457.002 621.974 456.949C621.948 456.923 621.917 456.902 621.883 456.888C621.849 456.874 621.812 456.866 621.775 456.866C621.738 456.866 621.702 456.874 621.668 456.888C621.633 456.902 621.602 456.923 621.576 456.949L618.691 459.834V456.585C618.691 456.511 618.662 456.44 618.609 456.387C618.557 456.334 618.486 456.305 618.411 456.305C618.338 456.306 618.267 456.336 618.215 456.389C618.163 456.441 618.133 456.511 618.131 456.585V459.834L615.252 456.932C615.226 456.906 615.195 456.885 615.161 456.871C615.127 456.857 615.09 456.85 615.053 456.85C615.016 456.85 614.979 456.857 614.945 456.871C614.911 456.885 614.88 456.906 614.854 456.932C614.802 456.986 614.774 457.057 614.774 457.131C614.774 457.205 614.802 457.277 614.854 457.33L617.739 460.209H614.49C614.416 460.211 614.346 460.241 614.294 460.293C614.241 460.345 614.211 460.416 614.21 460.49C614.21 460.564 614.239 460.635 614.292 460.688C614.345 460.74 614.416 460.77 614.49 460.77H617.739L614.854 463.655C614.802 463.708 614.774 463.779 614.774 463.853C614.774 463.928 614.802 463.999 614.854 464.052C614.908 464.103 614.979 464.131 615.053 464.131C615.127 464.131 615.198 464.103 615.252 464.052L618.131 461.167V464.411C618.131 464.485 618.161 464.556 618.213 464.609C618.266 464.661 618.337 464.691 618.411 464.691C618.486 464.691 618.557 464.661 618.609 464.609C618.662 464.556 618.691 464.485 618.691 464.411V461.167L621.576 464.052C621.63 464.103 621.701 464.131 621.775 464.131C621.849 464.131 621.92 464.103 621.974 464.052C622.026 463.999 622.055 463.928 622.055 463.853C622.055 463.779 622.026 463.708 621.974 463.655L619.089 460.77H622.333C622.407 460.77 622.478 460.74 622.531 460.688C622.583 460.635 622.613 460.564 622.613 460.49C622.608 460.418 622.577 460.351 622.525 460.302C622.473 460.253 622.404 460.226 622.333 460.226Z" fill="#6C63FF"/>
<path d="M634.097 460.226H630.853L633.738 457.347C633.79 457.294 633.819 457.222 633.819 457.148C633.819 457.074 633.79 457.002 633.738 456.949C633.712 456.923 633.681 456.902 633.647 456.888C633.613 456.874 633.576 456.866 633.539 456.866C633.502 456.866 633.466 456.874 633.431 456.888C633.397 456.902 633.366 456.923 633.34 456.949L630.455 459.834V456.585C630.455 456.511 630.426 456.44 630.373 456.387C630.321 456.334 630.25 456.305 630.175 456.305C630.101 456.306 630.031 456.336 629.979 456.389C629.927 456.441 629.897 456.511 629.895 456.585V459.834L627.016 456.932C626.99 456.906 626.959 456.885 626.925 456.871C626.891 456.857 626.854 456.85 626.817 456.85C626.78 456.85 626.743 456.857 626.709 456.871C626.675 456.885 626.644 456.906 626.618 456.932C626.566 456.986 626.537 457.057 626.537 457.131C626.537 457.205 626.566 457.277 626.618 457.33L629.503 460.209H626.254C626.18 460.211 626.11 460.241 626.057 460.293C626.005 460.345 625.975 460.416 625.974 460.49C625.974 460.564 626.003 460.635 626.056 460.688C626.108 460.74 626.18 460.77 626.254 460.77H629.503L626.618 463.655C626.566 463.708 626.537 463.779 626.537 463.853C626.537 463.928 626.566 463.999 626.618 464.052C626.672 464.103 626.743 464.131 626.817 464.131C626.891 464.131 626.962 464.103 627.016 464.052L629.895 461.167V464.411C629.895 464.485 629.925 464.556 629.977 464.609C630.03 464.661 630.101 464.691 630.175 464.691C630.25 464.691 630.321 464.661 630.373 464.609C630.426 464.556 630.455 464.485 630.455 464.411V461.167L633.34 464.052C633.394 464.103 633.465 464.131 633.539 464.131C633.613 464.131 633.684 464.103 633.738 464.052C633.79 463.999 633.819 463.928 633.819 463.853C633.819 463.779 633.79 463.708 633.738 463.655L630.853 460.77H634.097C634.171 460.77 634.242 460.74 634.295 460.688C634.347 460.635 634.377 460.564 634.377 460.49C634.372 460.418 634.341 460.351 634.289 460.302C634.237 460.253 634.168 460.226 634.097 460.226Z" fill="#6C63FF"/>
<path d="M645.86 460.226H642.617L645.502 457.347C645.554 457.294 645.583 457.222 645.583 457.148C645.583 457.074 645.554 457.002 645.502 456.949C645.476 456.923 645.445 456.902 645.411 456.888C645.377 456.874 645.34 456.866 645.303 456.866C645.266 456.866 645.23 456.874 645.195 456.888C645.161 456.902 645.13 456.923 645.104 456.949L642.219 459.834V456.585C642.219 456.511 642.19 456.44 642.137 456.387C642.085 456.334 642.013 456.305 641.939 456.305C641.865 456.306 641.795 456.336 641.743 456.389C641.69 456.441 641.661 456.511 641.659 456.585V459.834L638.78 456.932C638.754 456.906 638.723 456.885 638.689 456.871C638.654 456.857 638.618 456.85 638.581 456.85C638.544 456.85 638.507 456.857 638.473 456.871C638.439 456.885 638.408 456.906 638.382 456.932C638.33 456.986 638.301 457.057 638.301 457.131C638.301 457.205 638.33 457.277 638.382 457.33L641.267 460.209H638.018C637.944 460.211 637.874 460.241 637.821 460.293C637.769 460.345 637.739 460.416 637.738 460.49C637.738 460.564 637.767 460.635 637.82 460.688C637.872 460.74 637.944 460.77 638.018 460.77H641.267L638.382 463.655C638.33 463.708 638.301 463.779 638.301 463.853C638.301 463.928 638.33 463.999 638.382 464.052C638.436 464.103 638.507 464.131 638.581 464.131C638.655 464.131 638.726 464.103 638.78 464.052L641.659 461.167V464.411C641.659 464.485 641.689 464.556 641.741 464.609C641.794 464.661 641.865 464.691 641.939 464.691C642.013 464.691 642.085 464.661 642.137 464.609C642.19 464.556 642.219 464.485 642.219 464.411V461.167L645.104 464.052C645.158 464.103 645.229 464.131 645.303 464.131C645.377 464.131 645.448 464.103 645.502 464.052C645.554 463.999 645.583 463.928 645.583 463.853C645.583 463.779 645.554 463.708 645.502 463.655L642.617 460.77H645.86C645.935 460.77 646.006 460.74 646.059 460.688C646.111 460.635 646.141 460.564 646.141 460.49C646.136 460.418 646.105 460.351 646.053 460.302C646.001 460.253 645.932 460.226 645.86 460.226Z" fill="#6C63FF"/>
<path d="M657.624 460.226H654.381L657.266 457.347C657.318 457.294 657.346 457.222 657.346 457.148C657.346 457.074 657.318 457.002 657.266 456.949C657.24 456.923 657.209 456.902 657.175 456.888C657.141 456.874 657.104 456.866 657.067 456.866C657.03 456.866 656.993 456.874 656.959 456.888C656.925 456.902 656.894 456.923 656.868 456.949L653.983 459.834V456.585C653.983 456.511 653.954 456.44 653.901 456.387C653.849 456.334 653.777 456.305 653.703 456.305C653.629 456.306 653.559 456.336 653.507 456.389C653.454 456.441 653.424 456.511 653.423 456.585V459.834L650.544 456.932C650.518 456.906 650.487 456.885 650.452 456.871C650.418 456.857 650.382 456.85 650.345 456.85C650.308 456.85 650.271 456.857 650.237 456.871C650.203 456.885 650.172 456.906 650.146 456.932C650.094 456.986 650.065 457.057 650.065 457.131C650.065 457.205 650.094 457.277 650.146 457.33L653.031 460.209H649.782C649.708 460.211 649.638 460.241 649.585 460.293C649.533 460.345 649.503 460.416 649.502 460.49C649.502 460.564 649.531 460.635 649.584 460.688C649.636 460.74 649.708 460.77 649.782 460.77H653.031L650.146 463.655C650.094 463.708 650.065 463.779 650.065 463.853C650.065 463.928 650.094 463.999 650.146 464.052C650.2 464.103 650.271 464.131 650.345 464.131C650.419 464.131 650.49 464.103 650.544 464.052L653.423 461.167V464.411C653.423 464.485 653.453 464.556 653.505 464.609C653.558 464.661 653.629 464.691 653.703 464.691C653.777 464.691 653.849 464.661 653.901 464.609C653.954 464.556 653.983 464.485 653.983 464.411V461.167L656.868 464.052C656.922 464.103 656.993 464.131 657.067 464.131C657.141 464.131 657.212 464.103 657.266 464.052C657.318 463.999 657.346 463.928 657.346 463.853C657.346 463.779 657.318 463.708 657.266 463.655L654.381 460.77H657.624C657.699 460.77 657.77 460.74 657.822 460.688C657.875 460.635 657.904 460.564 657.904 460.49C657.9 460.418 657.869 460.351 657.817 460.302C657.765 460.253 657.696 460.226 657.624 460.226Z" fill="#6C63FF"/>
<path d="M669.388 460.226H666.145L669.03 457.347C669.081 457.294 669.11 457.222 669.11 457.148C669.11 457.074 669.081 457.002 669.03 456.949C669.004 456.923 668.973 456.902 668.939 456.888C668.905 456.874 668.868 456.866 668.831 456.866C668.794 456.866 668.757 456.874 668.723 456.888C668.689 456.902 668.658 456.923 668.632 456.949L665.747 459.834V456.585C665.747 456.511 665.718 456.44 665.665 456.387C665.613 456.334 665.541 456.305 665.467 456.305C665.393 456.306 665.323 456.336 665.271 456.389C665.218 456.441 665.188 456.511 665.187 456.585V459.834L662.308 456.932C662.282 456.906 662.251 456.885 662.216 456.871C662.182 456.857 662.146 456.85 662.109 456.85C662.072 456.85 662.035 456.857 662.001 456.871C661.967 456.885 661.936 456.906 661.91 456.932C661.858 456.986 661.829 457.057 661.829 457.131C661.829 457.205 661.858 457.277 661.91 457.33L664.795 460.209H661.546C661.472 460.211 661.401 460.241 661.349 460.293C661.297 460.345 661.267 460.416 661.266 460.49C661.266 460.564 661.295 460.635 661.348 460.688C661.4 460.74 661.471 460.77 661.546 460.77H664.795L661.91 463.655C661.858 463.708 661.829 463.779 661.829 463.853C661.829 463.928 661.858 463.999 661.91 464.052C661.964 464.103 662.035 464.131 662.109 464.131C662.183 464.131 662.254 464.103 662.308 464.052L665.187 461.167V464.411C665.187 464.485 665.216 464.556 665.269 464.609C665.321 464.661 665.393 464.691 665.467 464.691C665.541 464.691 665.613 464.661 665.665 464.609C665.718 464.556 665.747 464.485 665.747 464.411V461.167L668.632 464.052C668.686 464.103 668.757 464.131 668.831 464.131C668.905 464.131 668.976 464.103 669.03 464.052C669.081 463.999 669.11 463.928 669.11 463.853C669.11 463.779 669.081 463.708 669.03 463.655L666.145 460.77H669.388C669.463 460.77 669.534 460.74 669.586 460.688C669.639 460.635 669.668 460.564 669.668 460.49C669.664 460.418 669.633 460.351 669.581 460.302C669.529 460.253 669.46 460.226 669.388 460.226Z" fill="#6C63FF"/>
<path d="M759.573 528.373C759.557 527.696 759.472 527.022 759.32 526.362C758.816 524.468 757.679 522.177 755.808 521.606C753.876 521.014 752.01 520.226 750.24 519.253C749.904 513.248 751.282 507.103 749.781 501.282C749.22 499.154 748.296 497.114 748.05 494.935C747.741 492.224 748.481 489.334 747.4 486.835C746.548 484.863 744.677 483.474 742.666 482.746C740.655 482.017 738.487 481.821 736.353 481.625C733.664 481.407 724.959 480.376 721.922 482.779C721.713 482.942 721.525 483.13 721.362 483.34C721.295 483.432 721.235 483.529 721.183 483.631L721.155 483.676C721.094 483.792 721.044 483.914 721.004 484.04C720.961 484.177 720.93 484.318 720.909 484.46C720.909 484.505 720.909 484.55 720.909 484.594C720.909 484.639 720.909 484.79 720.909 484.891V485.042C720.909 485.143 720.909 485.244 720.909 485.351C720.909 485.457 720.909 485.429 720.909 485.468C720.948 485.972 721.021 486.477 721.021 486.975C721.027 487.223 721.004 487.471 720.953 487.715C720.767 488.375 720.451 488.992 720.023 489.53L719.923 489.675C719.861 489.765 719.799 489.849 719.743 489.939C719.687 490.028 719.643 490.095 719.598 490.174C719.553 490.252 719.508 490.303 719.469 490.375C719.415 490.468 719.366 490.563 719.323 490.661C719.323 490.717 719.262 490.768 719.239 490.824C719.169 490.975 719.113 491.133 719.071 491.294C718.94 491.781 718.928 492.292 719.038 492.784C719.189 493.413 719.448 494.01 719.805 494.549C719.945 494.779 720.096 495.003 720.253 495.227L720.645 495.759C720.572 496.279 720.533 496.803 720.528 497.327C720.528 499.082 720.926 500.813 721.693 502.391C722.459 503.968 723.574 505.352 724.953 506.436C725.175 508.802 725.151 511.184 724.88 513.545C724.83 514.038 724.768 514.536 724.701 515.029C724.634 515.522 724.583 515.847 724.516 516.256C723.696 516.373 722.861 516.31 722.068 516.071C721.702 515.908 721.328 515.764 720.948 515.64C719.318 515.231 717.654 516.855 716.041 516.362C716.041 516.441 715.996 516.514 715.968 516.587C715.631 516.377 715.244 516.263 714.847 516.256C713.889 516.211 713.111 515.517 712.416 514.861L710.282 512.85C710.143 512.727 710.019 512.588 709.912 512.436C709.797 512.218 709.711 511.986 709.654 511.747C709.296 510.587 708.428 509.663 707.587 508.783C707.428 508.583 707.217 508.43 706.977 508.341C706.884 508.327 706.789 508.327 706.697 508.341C706.639 508.262 706.578 508.188 706.512 508.117C706.367 507.95 706.211 507.793 706.047 507.646C705.027 506.705 704.926 505.898 704.041 504.845C703.269 503.841 702.569 502.783 701.946 501.68C701.873 501.092 701.773 500.487 701.649 499.876C701.367 498.478 700.956 497.109 700.423 495.787L699.302 493.305L699.173 493.434C698.361 492.224 697.493 491.563 696.714 491.72C695.409 491.989 694.765 494.521 694.972 497.832L695.42 501.193C695.42 501.277 695.459 501.361 695.482 501.445C695.401 501.843 695.36 502.248 695.358 502.655C695.358 503.125 695.795 503.473 696.025 503.893C696.393 504.462 696.587 505.125 696.585 505.803C696.557 506.044 696.484 506.274 696.473 506.509C696.504 507.035 696.687 507.541 697 507.965L699.801 512.671L700.361 513.657L700.395 513.702C700.571 514.046 700.829 514.342 701.145 514.564C701.255 515.743 701.568 516.893 702.069 517.965C702.165 518.177 702.271 518.379 702.383 518.581C703.136 519.819 704.023 520.97 705.027 522.015L706.361 523.51C707.677 524.978 708.993 526.451 710.422 527.807C710.933 528.351 711.551 528.784 712.237 529.079C712.573 529.213 712.938 529.256 713.296 529.204C713.654 529.152 713.992 529.006 714.276 528.782C714.276 529.476 714.276 530.171 714.276 530.866C714.484 530.878 714.685 530.947 714.858 531.063C715.031 531.179 715.169 531.34 715.259 531.527C715.35 531.715 715.388 531.924 715.371 532.131C715.353 532.339 715.281 532.538 715.161 532.709C713.985 535.728 712.797 538.775 711.016 541.481C712.273 542.225 713.439 543.115 714.489 544.131C715.17 544.886 715.776 545.706 716.298 546.579C716.349 546.993 716.388 547.402 716.41 547.811C716.825 554.489 714.242 561.116 711.929 567.479C711.262 569.283 710.534 571.171 710.59 573.048C710.151 573.318 709.732 573.62 709.335 573.95C709.794 575.148 709.615 576.218 709.565 577.501C709.548 578.27 709.39 579.03 709.1 579.742C708.856 580.236 708.587 580.716 708.293 581.182C706.842 583.742 706.523 586.783 706.232 589.708C706.058 591.472 706.741 593.629 705.94 595.209C704.557 597.92 703.33 600.81 703.139 603.824C703.133 604.502 703.046 605.177 702.882 605.835C702.708 606.396 702.4 606.872 702.243 607.421C702.082 608.156 702.044 608.913 702.131 609.661C702.238 612.347 701.839 615.028 700.955 617.566C700.254 619.565 699.481 621.705 700.03 623.761C698.679 625.181 697.844 627.014 697.661 628.965C697.646 629.465 697.586 629.962 697.482 630.45C697.31 630.949 697.085 631.428 696.809 631.878C695.682 633.932 695.154 636.261 695.286 638.601C693.605 640.881 692.765 643.693 692.266 646.488C691.768 649.283 691.549 652.129 690.911 654.891C690.059 658.543 688.519 662.235 688.216 665.977C686.401 667.136 685.617 669.383 685.27 671.506C684.922 673.629 684.866 675.859 683.975 677.819C683.516 678.839 682.855 679.752 682.418 680.794C682.112 681.623 681.887 682.481 681.746 683.354C681.477 684.721 681.242 686.244 681.572 687.555C681.097 688.059 680.543 688.48 679.931 688.804C680.021 688.457 680.093 688.11 680.155 687.757C678.71 689.068 676.088 688.608 674.934 690.183C674.588 690.69 674.452 691.312 674.557 691.918C674.662 692.523 674.998 693.064 675.494 693.426C675.855 693.646 676.246 693.814 676.654 693.925C679.455 694.821 682.334 695.723 685.214 695.247C685.554 695.21 685.883 695.105 686.183 694.938C686.557 694.663 686.865 694.307 687.085 693.897C687.516 693.213 687.947 692.53 688.373 691.846C689.405 692.154 690.454 692.399 691.516 692.58C691.622 693.476 691.7 694.373 691.74 695.269C692.3 695.381 693.05 695.415 693.314 694.894C693.394 694.697 693.426 694.484 693.409 694.272C693.409 693.874 693.465 693.348 693.499 692.81H693.611C695.32 692.879 697.02 692.535 698.568 691.807C697.969 686.844 699.946 681.993 701.661 677.298C703.47 672.357 705.022 667.327 706.585 662.296C707.705 658.756 708.943 655.328 710.041 651.782C711.423 647.3 712.81 642.819 714.203 638.337C714.808 636.365 715.419 634.416 716.113 632.455C717.576 628.488 719.311 624.627 721.306 620.899C721.866 619.84 722.427 618.792 722.886 617.694C723.446 616.356 723.844 614.955 724.292 613.572C725.269 610.732 726.444 607.966 727.81 605.292C727.849 605.219 727.877 605.152 727.916 605.085C728.37 606.939 728.824 608.821 729.126 610.687C729.536 612.974 729.568 615.313 729.222 617.61C728.953 619.173 728.443 620.719 728.505 622.305C728.589 624.495 729.759 626.484 730.336 628.596C730.708 630.176 730.919 631.79 730.964 633.413C731.121 635.934 732.488 638.763 731.524 641.099C728.527 648.499 729.978 656.857 728.269 664.627C727.39 668.615 724.695 672.363 724.908 676.441C725.058 679.335 725.312 682.222 725.67 685.102C725.756 686.01 725.993 686.898 726.37 687.729C726.594 688.166 726.85 688.586 727.138 688.984C726.891 689.079 726.684 689.331 726.505 689.863C726.045 691.264 726.505 693 727.748 693.785C728.255 694.055 728.802 694.245 729.367 694.345C730.129 694.561 730.917 694.671 731.709 694.67C731.955 694.656 732.2 694.626 732.443 694.58C733.309 694.944 734.193 695.262 735.092 695.532C735.092 695.762 735.137 695.992 735.165 696.221C735.167 696.341 735.193 696.46 735.244 696.569C735.294 696.678 735.366 696.775 735.457 696.854C735.596 696.92 735.751 696.947 735.905 696.933H738.947C738.947 696.681 738.947 696.423 738.947 696.171C739.295 696.207 739.646 696.17 739.979 696.062C740.312 695.954 740.619 695.777 740.879 695.544C741.149 695.201 741.34 694.803 741.439 694.378C742.268 691.566 743.092 688.752 743.91 685.936C744.89 682.824 745.299 679.559 745.114 676.301C744.033 665.977 746.408 655.619 745.635 645.267C745.17 639.045 745.49 632.789 746.587 626.646C746.84 625.257 747.148 623.845 747.26 622.462C747.506 619.851 747.204 617.213 747.389 614.619C747.45 613.712 747.573 612.81 747.685 611.908C748.453 606.31 748.855 600.668 748.89 595.018C748.873 593.146 748.757 591.276 748.543 589.416C749.127 589.268 749.657 588.957 750.072 588.52C750.57 587.87 750.442 586.957 750.436 586.128C750.436 584.145 751.271 582.274 751.943 580.403C752.806 577.822 753.513 575.192 754.06 572.527C754.639 570.379 754.955 568.169 755.001 565.944C755.001 565.72 754.99 565.496 754.968 565.272C755.179 565.126 755.355 564.935 755.483 564.712C755.629 564.384 755.72 564.034 755.752 563.676C755.954 562.247 756.161 560.813 756.363 559.379C756.512 558.352 756.66 557.327 756.805 556.304L758.587 543.873C758.738 542.792 758.895 541.716 759.046 540.641L759.511 537.425C759.561 537.045 759.617 536.664 759.657 536.305C761.023 534.02 759.718 530.972 759.573 528.373ZM744.711 574.913C744.05 573.345 743.434 571.737 743.59 570.045H743.529C743.676 569.524 743.651 568.97 743.456 568.465C743.282 568.056 742.98 567.709 742.795 567.3C742.596 566.801 742.494 566.269 742.493 565.732C742.353 562.325 742.622 558.913 743.294 555.57C743.366 555.178 743.445 554.78 743.518 554.388C743.753 554.252 743.968 554.084 744.156 553.889C744.451 553.553 744.694 553.176 744.879 552.769C745.512 551.497 746.089 550.203 746.621 548.887C746.795 548.461 747.047 547.968 747.478 547.862C747.389 551.139 747.725 554.483 746.391 557.441C746.138 557.918 745.95 558.427 745.831 558.953C745.708 559.788 746.055 560.634 745.932 561.463C745.87 561.894 745.686 562.292 745.613 562.718C745.557 562.927 745.558 563.147 745.615 563.355C745.672 563.564 745.784 563.754 745.938 563.905C746.012 563.957 746.093 563.999 746.179 564.029C746.145 564.253 746.117 564.482 746.095 564.701C746.05 565.16 746.027 565.592 745.999 565.86C745.87 567.231 745.82 568.607 745.848 569.983C745.848 571.468 745.904 572.952 745.882 574.465C745.902 574.899 745.83 575.333 745.669 575.737C745.558 575.945 745.414 576.134 745.243 576.297C745.081 575.793 744.901 575.35 744.711 574.913Z" fill="url(#paint0_linear)"/>
<path d="M700.491 509.914C702.2 509.564 702.782 505.356 701.79 500.516C700.798 495.676 698.609 492.036 696.899 492.386C695.19 492.737 694.608 496.944 695.6 501.785C696.592 506.625 698.782 510.265 700.491 509.914Z" fill="#FBBEBE"/>
<path d="M726.595 689.97C726.135 691.359 726.595 693.095 727.838 693.852C728.342 694.12 728.884 694.309 729.446 694.412C730.206 694.627 730.992 694.734 731.782 694.731C732.751 694.686 733.681 694.305 734.65 694.171C734.762 694.143 734.88 694.159 734.981 694.216C735.029 694.268 735.065 694.33 735.087 694.398C735.108 694.466 735.114 694.538 735.104 694.608C735.114 695.159 735.155 695.709 735.227 696.255C735.228 696.375 735.254 696.494 735.304 696.603C735.355 696.712 735.428 696.809 735.518 696.888C735.658 696.953 735.813 696.98 735.966 696.966H739.003C739.071 694.299 738.779 691.634 738.134 689.045C738.092 688.847 738.017 688.658 737.91 688.485C737.653 688.203 737.314 688.007 736.941 687.925C736.199 687.616 735.397 687.476 734.594 687.516C733.614 687.645 732.796 688.278 731.961 688.804C731.126 689.331 729.989 689.796 728.975 689.527C727.961 689.258 727.116 688.412 726.595 689.97Z" fill="#3F3D56"/>
<path d="M682.015 687.51C681.161 688.424 680.114 689.136 678.951 689.594L678.435 689.841C678.364 689.868 678.303 689.917 678.262 689.981C678.252 690.024 678.252 690.07 678.261 690.113C678.271 690.157 678.29 690.198 678.318 690.233C678.746 690.896 679.38 691.401 680.122 691.671C680.865 691.941 681.675 691.961 682.429 691.729C682.763 691.645 683.072 691.484 683.331 691.258C683.758 690.752 684.003 690.116 684.026 689.454C684.195 688.771 684.166 688.054 683.942 687.387C683.163 685.634 682.878 686.429 682.015 687.51Z" fill="#FBBEBE"/>
<path d="M693.655 694.412C693.673 694.624 693.64 694.837 693.56 695.034C693.297 695.549 692.563 695.521 691.992 695.409C691.905 693.508 691.675 691.617 691.303 689.751C690.216 689.701 689.432 690.732 688.849 691.656L687.348 694.037C687.131 694.447 686.824 694.803 686.451 695.079C686.151 695.243 685.822 695.347 685.482 695.387C682.614 695.863 679.718 694.961 676.951 694.065C676.543 693.955 676.153 693.789 675.791 693.572C675.297 693.209 674.963 692.669 674.859 692.066C674.754 691.462 674.888 690.841 675.231 690.334C676.391 688.765 678.995 689.213 680.441 687.914C680.29 688.828 680.042 689.724 679.701 690.586C681.634 690.295 682.934 688.524 684.491 687.342C684.882 687.01 685.353 686.786 685.858 686.693C686.235 686.661 686.615 686.701 686.978 686.81C688.774 687.262 690.454 688.089 691.908 689.236C692.496 689.701 693.415 690.356 693.672 691.073C693.947 691.93 693.655 693.499 693.655 694.412Z" fill="#3F3D56"/>
<path d="M732.191 509.584C738.582 509.584 743.764 504.403 743.764 498.011C743.764 491.619 738.582 486.437 732.191 486.437C725.799 486.437 720.617 491.619 720.617 498.011C720.617 504.403 725.799 509.584 732.191 509.584Z" fill="#FBBEBE"/>
<path d="M754.99 566.342C754.943 568.555 754.629 570.754 754.055 572.891C753.507 575.545 752.8 578.164 751.937 580.733C751.271 582.599 750.436 584.47 750.441 586.447C750.441 587.271 750.576 588.184 750.072 588.834C749.623 589.29 749.057 589.614 748.436 589.769C748.126 589.851 747.84 590.005 747.601 590.218C747.361 590.431 747.175 590.698 747.058 590.996C746.532 590.21 746.138 589.343 745.893 588.43C744.888 585.353 743.954 582.259 743.092 579.148C743.013 578.969 742.979 578.773 742.992 578.578C743.006 578.383 743.067 578.194 743.17 578.028C743.312 577.904 743.478 577.811 743.658 577.753C744.232 577.519 744.758 577.181 745.209 576.756C745.421 576.568 745.596 576.342 745.725 576.089C745.887 575.688 745.962 575.256 745.943 574.823C745.943 573.339 745.943 571.86 745.904 570.376C745.88 569.005 745.933 567.634 746.061 566.269C746.061 566.001 746.111 565.569 746.156 565.11C746.24 564.23 746.408 563.211 746.884 562.869C747.596 562.393 749.724 563.032 750.531 563.144C751.92 563.334 753.332 563.558 754.688 563.821C754.885 564.647 754.986 565.493 754.99 566.342Z" fill="#3F3D56"/>
<path d="M708.26 510.968C707.811 511.864 706.736 512.296 705.907 512.861L703.067 514.811C702.877 514.982 702.654 515.113 702.413 515.195C702.171 515.278 701.915 515.311 701.661 515.293C701.429 515.207 701.218 515.076 701.038 514.908C700.858 514.74 700.713 514.537 700.613 514.312C700.615 514.297 700.615 514.282 700.613 514.267L700.025 513.281L697.224 508.587C696.912 508.167 696.731 507.664 696.703 507.142C696.703 506.901 696.787 506.677 696.809 506.436C696.817 505.759 696.622 505.096 696.249 504.531C696.025 504.111 695.577 503.764 695.588 503.293C695.567 502.675 695.674 502.059 695.902 501.484C696.196 500.952 696.617 500.502 697.129 500.173C697.392 499.983 697.661 499.803 697.941 499.613C698.09 499.511 698.254 499.436 698.428 499.389C698.893 499.294 699.353 499.68 699.823 499.697C701.845 501.053 702.624 503.618 704.215 505.467C705.111 506.52 705.201 507.327 706.215 508.268C706.377 508.413 706.534 508.57 706.685 508.733C706.886 508.951 707.056 509.196 707.19 509.461C707.374 509.943 708.489 510.509 708.26 510.968Z" fill="#3F3D56"/>
<path d="M728.124 509.59C728.959 511.354 729.608 513.293 729.367 515.231C729.318 515.756 729.152 516.263 728.88 516.715C728.073 517.953 726.382 518.177 724.908 518.25C724.598 518.224 724.286 518.26 723.989 518.357C723.693 518.453 723.419 518.607 723.183 518.81C722.986 519.097 722.89 519.44 722.909 519.787C722.928 520.133 723.062 520.464 723.289 520.726C723.763 521.232 724.351 521.616 725.004 521.847C727.334 522.872 729.849 523.718 732.381 523.482C733.558 523.37 734.7 523.029 735.871 522.855C737.148 522.717 738.43 522.646 739.714 522.642C741.238 522.586 742.756 522.435 744.274 522.284L748.296 521.886C748.516 521.889 748.729 521.811 748.896 521.667C749.192 521.32 748.812 520.81 748.442 520.547C746.308 518.967 743.591 517.881 742.375 515.505C741.815 514.385 741.641 513.052 741.227 511.842C740.812 510.632 740.151 509.539 739.893 508.307C739.756 507.226 739.694 506.136 739.709 505.047C739.723 503.948 739.323 502.884 738.588 502.067C737.787 501.321 736.628 501.131 735.541 501.086C732.863 500.969 730.012 501.607 728.113 503.495C727.603 504.005 727.166 504.615 726.639 505.075C726.113 505.534 725.396 505.669 725.743 506.274C726.09 506.879 726.774 507.254 727.144 507.786C727.518 508.36 727.846 508.963 728.124 509.59Z" fill="#FBBEBE"/>
<path d="M750.94 525.886C750.234 530.199 749.085 534.428 747.512 538.507C746.721 540.348 746.047 542.238 745.495 544.164C745.064 545.901 745.148 547.761 744.75 549.503C744.257 551.671 743.764 553.845 743.366 556.029C742.699 559.365 742.432 562.769 742.571 566.169C742.572 566.704 742.675 567.234 742.873 567.731C743.058 568.135 743.355 568.482 743.529 568.897C743.659 569.261 743.712 569.648 743.685 570.033C743.658 570.419 743.551 570.795 743.372 571.137C743.085 571.779 742.695 572.369 742.218 572.885C736.997 574.443 731.412 573.933 725.973 574.263C720.959 574.566 715.889 575.596 710.948 574.739C710.388 572.499 711.324 570.152 712.125 567.967C714.45 561.62 717.021 555.01 716.606 548.36C716.563 547.585 716.475 546.812 716.343 546.047C715.531 541.336 716.416 536.456 717.833 531.891C718.713 529.045 718.673 526.014 718.472 523.051C718.372 522.089 718.359 521.12 718.433 520.155C718.514 519.17 718.88 518.23 719.486 517.449C719.486 517.41 719.536 517.371 719.564 517.332C719.592 517.292 719.811 517.298 719.984 517.332C720.029 517.35 720.076 517.36 720.124 517.36C720.172 517.36 720.22 517.35 720.264 517.332L720.326 517.292C720.35 517.275 720.378 517.266 720.407 517.266C720.436 517.266 720.465 517.275 720.488 517.292C720.617 517.371 720.69 517.64 720.97 517.69C721.384 517.753 721.801 517.792 722.219 517.808C722.723 517.823 723.222 517.894 723.71 518.021H723.777C724.505 518.143 725.253 518.08 725.95 517.836C726.414 517.72 726.862 517.547 727.283 517.32C727.407 517.186 728.18 517.063 728.337 516.967C728.846 516.659 728.734 515.214 728.841 514.62C728.9 514.025 729.041 513.44 729.261 512.884C729.516 512.473 729.868 512.131 730.286 511.888C730.704 511.645 731.175 511.508 731.659 511.489C732.623 511.466 733.587 511.552 734.532 511.747C736.622 512.043 738.762 511.993 740.812 512.475C741.843 512.716 742.969 513.08 743.915 512.609C744.173 512.671 744.212 512.895 744.212 513.169C744.188 513.43 744.136 513.688 744.055 513.937C743.697 515.483 744.913 516.906 746.033 518.026C746.506 518.554 747.065 518.999 747.685 519.343C748.246 519.6 748.806 519.707 749.366 519.987C749.82 520.229 750.205 520.582 750.486 521.012C750.809 521.506 751.027 522.061 751.125 522.642C751.245 523.726 751.183 524.822 750.94 525.886Z" fill="#3F3D56"/>
<path opacity="0.1" d="M750.94 525.886C750.234 530.199 749.085 534.428 747.512 538.507C746.721 540.348 746.047 542.238 745.495 544.164C745.064 545.901 745.148 547.761 744.75 549.503C744.257 551.671 743.764 553.845 743.366 556.029C743.249 556.096 743.126 556.158 743.002 556.214C742.305 556.547 741.567 556.784 740.806 556.92C739.441 557.085 738.058 557.04 736.706 556.785L728.712 555.716C725.519 555.284 722.119 554.763 719.749 552.601C718.433 551.413 717.57 549.845 716.623 548.332C716.58 547.557 716.492 546.784 716.36 546.019C715.548 541.308 716.433 536.428 717.85 531.863C718.729 529.017 718.69 525.986 718.489 523.023C718.389 522.061 718.376 521.092 718.449 520.127C718.53 519.142 718.896 518.202 719.503 517.421C719.666 517.373 719.833 517.336 720.001 517.309C720.114 517.286 720.228 517.271 720.343 517.264H720.505C720.694 517.265 720.882 517.288 721.065 517.332C721.447 517.453 721.821 517.597 722.186 517.763H722.253C722.733 517.921 723.238 517.993 723.743 517.976C724.483 517.976 725.244 517.858 725.984 517.808C726.897 517.665 727.832 517.833 728.639 518.284C729.16 518.702 729.654 519.153 730.118 519.634C730.679 520.074 731.309 520.417 731.984 520.648C736.806 522.488 742.155 522.376 746.896 520.334C747.351 520.075 747.868 519.944 748.391 519.953C748.778 520.029 749.145 520.186 749.467 520.413C749.803 520.609 750.134 520.799 750.475 520.973C750.798 521.466 751.016 522.021 751.114 522.603C751.242 523.699 751.183 524.809 750.94 525.886Z" fill="black"/>
<path d="M755.82 522.177C753.589 521.496 751.446 520.556 749.433 519.376C749.11 519.151 748.744 518.994 748.358 518.917C747.833 518.911 747.315 519.042 746.857 519.298C742.118 521.339 736.77 521.452 731.95 519.612C731.277 519.378 730.646 519.036 730.085 518.598C729.619 518.118 729.125 517.668 728.606 517.248C726.763 516.054 724.214 517.455 722.152 516.687C721.787 516.524 721.413 516.38 721.032 516.256C719.402 515.847 717.744 517.472 716.142 516.979C715.545 518.599 715.105 520.272 714.825 521.976C714.597 523.932 714.476 525.899 714.461 527.869C714.461 529.051 714.405 530.233 714.461 531.415C714.658 531.447 714.847 531.52 715.015 531.629C715.183 531.738 715.326 531.88 715.436 532.048C715.509 532.243 715.539 532.452 715.524 532.66C715.508 532.868 715.448 533.07 715.346 533.252C714.175 536.26 712.988 539.302 711.212 541.997C712.463 542.742 713.625 543.629 714.674 544.641C716.635 546.713 717.598 549.621 719.716 551.537C722.102 553.693 725.502 554.22 728.679 554.646L736.672 555.716C738.026 555.969 739.411 556.016 740.779 555.856C741.537 555.717 742.274 555.478 742.969 555.144C743.423 554.954 743.837 554.681 744.19 554.337C744.485 554.002 744.729 553.624 744.913 553.217C745.546 551.951 746.123 550.657 746.655 549.346C746.84 548.881 747.12 548.338 747.624 548.299C750.593 545.621 753.394 542.876 756.363 540.198C757.556 539.21 758.626 538.081 759.55 536.837C761.024 534.658 759.685 531.571 759.55 528.939C759.534 528.265 759.45 527.595 759.298 526.939C758.817 525.029 757.685 522.743 755.82 522.177Z" fill="#6C63FF"/>
<path opacity="0.1" d="M708.26 510.968C707.812 511.864 706.736 512.296 705.907 512.861L703.067 514.811C702.877 514.982 702.655 515.113 702.413 515.195C702.171 515.278 701.915 515.311 701.661 515.293C701.43 515.207 701.218 515.076 701.038 514.908C700.858 514.74 700.714 514.537 700.613 514.312C700.613 514.183 700.613 514.043 700.613 513.909C700.592 513.455 700.652 513.002 700.792 512.57C701.07 511.937 701.502 511.382 702.047 510.957C703.102 509.958 704.356 509.194 705.728 508.716C705.941 508.633 706.174 508.61 706.4 508.649C706.487 508.671 706.57 508.707 706.646 508.755C706.847 508.974 707.016 509.219 707.15 509.483C707.375 509.943 708.489 510.509 708.26 510.968Z" fill="black"/>
<path d="M714.948 516.872C713.996 516.827 713.217 516.138 712.523 515.483L710.4 513.511C710.257 513.391 710.133 513.251 710.03 513.097C709.915 512.879 709.829 512.647 709.772 512.408C709.322 511.276 708.616 510.264 707.711 509.45C707.553 509.249 707.341 509.098 707.1 509.013C706.872 508.971 706.637 508.994 706.422 509.08C705.05 509.558 703.796 510.321 702.742 511.321C702.197 511.747 701.765 512.301 701.487 512.934C701.346 513.366 701.285 513.82 701.308 514.273C701.321 515.753 701.653 517.213 702.282 518.553C702.378 518.76 702.484 518.967 702.596 519.169C703.344 520.404 704.227 521.552 705.229 522.592L706.562 524.082C707.873 525.55 709.184 527.017 710.607 528.367C711.117 528.911 711.735 529.343 712.422 529.633C712.767 529.774 713.143 529.817 713.511 529.758C713.879 529.698 714.223 529.539 714.506 529.297C714.774 528.987 714.976 528.624 715.1 528.233C715.962 525.992 716.78 523.662 716.83 521.247C716.843 520.28 716.801 519.314 716.707 518.351C716.623 517.332 715.901 516.934 714.948 516.872Z" fill="#6C63FF"/>
<path d="M748.895 595.298C748.863 600.933 748.462 606.56 747.697 612.143C747.585 613.045 747.461 613.947 747.4 614.849C747.215 617.465 747.517 620.092 747.271 622.691C747.142 624.097 746.851 625.492 746.604 626.865C745.509 632.99 745.189 639.229 745.652 645.435C746.425 655.759 744.055 666.089 745.131 676.385C745.261 678.387 745.15 680.398 744.8 682.374C744.6 683.599 744.31 684.809 743.932 685.992C743.114 688.797 742.293 691.598 741.467 694.395C741.37 694.821 741.179 695.219 740.907 695.56C740.621 695.807 740.286 695.991 739.924 696.098C739.562 696.205 739.181 696.234 738.806 696.182C735.574 696.081 732.532 694.686 729.597 693.325C729.259 693.192 728.947 693.003 728.673 692.765C728.062 692.132 728.112 691.135 727.844 690.3C727.575 689.465 726.846 688.681 726.432 687.824C726.091 687.013 725.885 686.152 725.821 685.275C725.448 682.407 725.194 679.528 725.059 676.637C724.847 672.57 727.535 668.828 728.421 664.873C730.101 657.098 728.678 648.762 731.664 641.385C732.605 639.054 731.238 636.231 731.104 633.721C731.055 632.102 730.845 630.492 730.476 628.915C729.916 626.809 728.734 624.826 728.65 622.641C728.589 621.061 729.098 619.521 729.362 617.963C729.711 615.672 729.679 613.338 729.266 611.056C728.97 609.174 728.516 607.292 728.062 605.454L727.961 605.662C726.596 608.329 725.423 611.091 724.449 613.924C724.001 615.297 723.609 616.697 723.048 618.031C722.589 619.151 722.023 620.176 721.469 621.229C719.48 624.943 717.748 628.79 716.287 632.741C715.592 634.679 714.982 636.662 714.377 638.606L710.226 652.051C709.105 655.585 707.879 659.003 706.781 662.532C705.229 667.573 703.677 672.57 701.873 677.5C700.193 682.177 698.193 687.023 698.792 691.964C697.248 692.69 695.551 693.034 693.846 692.967C690.959 692.711 688.126 692.024 685.443 690.928C684.373 690.53 683.264 690.082 682.541 689.202C681.298 687.684 681.606 685.46 681.981 683.528C682.123 682.656 682.348 681.801 682.653 680.973C683.079 679.942 683.774 679.029 684.211 678.01C685.09 676.055 685.146 673.842 685.494 671.719C685.841 669.596 686.614 667.355 688.429 666.201C688.737 662.47 690.272 658.79 691.118 655.143C691.756 652.381 691.969 649.541 692.473 646.74C692.978 643.939 693.79 641.138 695.482 638.87C695.348 636.53 695.876 634.2 697.005 632.147C697.278 631.696 697.502 631.217 697.672 630.719C697.776 630.232 697.836 629.737 697.851 629.24C698.036 627.293 698.869 625.465 700.215 624.047C699.655 622.002 700.434 619.868 701.134 617.885C702.016 615.354 702.415 612.681 702.31 610.003C702.223 609.255 702.259 608.499 702.417 607.762C702.574 607.202 702.882 606.726 703.061 606.188C703.221 605.53 703.305 604.855 703.313 604.177C703.532 601.147 704.758 598.29 706.114 595.584C706.921 594.004 706.237 591.859 706.405 590.1C706.697 587.176 707.016 584.151 708.467 581.602C708.736 581.12 709.027 580.661 709.268 580.162C709.56 579.45 709.717 578.69 709.733 577.921C709.783 576.638 709.962 575.574 709.503 574.381C712.5 571.888 716.589 571.188 720.488 571.02C724.387 570.852 728.331 571.205 732.146 570.376C733.266 570.124 734.387 569.776 735.569 569.608C738.252 569.216 740.974 569.827 743.624 570.432C743.439 572.112 744.055 573.726 744.744 575.288C747.434 581.619 748.845 588.42 748.895 595.298Z" fill="#33313F"/>
<path opacity="0.1" d="M735.703 596.581L729.267 611.056C728.97 609.174 728.516 607.292 728.062 605.454L727.961 605.662V605.359L731.468 597.645L735.703 596.581Z" fill="black"/>
<path opacity="0.1" d="M754.99 566.342C754.619 566.62 754.176 566.785 753.713 566.818C753.004 566.844 752.295 566.747 751.618 566.533L746.576 565.272C746.418 565.233 746.264 565.179 746.117 565.11C746.201 564.23 746.369 563.211 746.845 562.869C747.557 562.393 749.685 563.032 750.492 563.144C751.881 563.334 753.293 563.558 754.649 563.821C754.859 564.646 754.973 565.492 754.99 566.342Z" fill="black"/>
<path d="M759.253 533.011C759.36 533.476 759.511 533.935 759.601 534.406C759.751 535.561 759.712 536.732 759.483 537.874L759.024 541.078L758.564 544.299L756.788 556.696L756.352 559.766L755.735 564.051C755.706 564.408 755.615 564.756 755.466 565.082C755.283 565.386 755.027 565.64 754.721 565.821C754.414 566.002 754.068 566.104 753.713 566.118C753.004 566.141 752.295 566.044 751.618 565.832L746.576 564.566C746.355 564.527 746.145 564.441 745.96 564.314C745.806 564.164 745.695 563.975 745.638 563.767C745.581 563.56 745.58 563.341 745.635 563.132C745.708 562.707 745.893 562.309 745.954 561.883C746.078 561.054 745.73 560.203 745.854 559.379C745.975 558.855 746.163 558.348 746.414 557.872C748.094 554.158 747.12 549.822 747.691 545.789C748.205 542.615 749.546 539.632 751.579 537.14C752.833 535.567 754.274 534.152 755.87 532.927C756.497 532.44 757.494 531.437 758.284 531.247C759.298 531.034 759.085 532.305 759.253 533.011Z" fill="#6C63FF"/>
<path d="M721.099 484.757C720.729 485.933 721.306 487.227 721.043 488.426C720.757 489.748 719.514 490.667 719.161 491.994C718.601 494.017 720.315 495.86 721.57 497.54C726.219 503.781 725.609 512.419 724.018 520.032C722.738 526.14 720.967 532.134 718.724 537.958C718.024 539.767 717.251 541.604 715.873 542.96C718.449 542.221 721.189 541.476 723.771 542.193C727.043 543.1 729.866 546.276 733.182 545.554C735.177 545.111 736.577 543.341 738.37 542.361C741.731 540.551 745.781 541.688 749.529 542.271C750.336 542.462 751.181 542.419 751.965 542.148C752.565 541.826 753.073 541.357 753.444 540.787C755.117 538.641 756.118 536.049 756.324 533.336C756.412 531.985 756.213 530.631 755.739 529.363C755.265 528.095 754.526 526.942 753.573 525.981C752.778 525.23 751.825 524.625 751.215 523.74C750.621 522.706 750.303 521.537 750.29 520.345C749.848 514.183 751.349 507.892 749.803 501.932C749.243 499.809 748.33 497.776 748.083 495.602C747.775 492.896 748.509 490 747.433 487.524C746.588 485.558 744.722 484.163 742.711 483.446C740.7 482.729 738.549 482.527 736.415 482.326C733.345 482.068 722.382 480.751 721.099 484.757Z" fill="#33313F"/>
<g opacity="0.1">
<path opacity="0.1" d="M724.018 520.032C722.744 526.114 720.983 532.085 718.752 537.885C719.138 537.117 719.463 536.311 719.771 535.51C722.017 529.687 723.788 523.692 725.065 517.584C726.662 509.965 727.272 501.338 722.623 495.092C721.502 493.602 720.063 491.989 720.113 490.241C719.699 490.77 719.377 491.364 719.161 492C718.601 494.022 720.315 495.865 721.57 497.546C726.219 503.781 725.609 512.419 724.018 520.032Z" fill="black"/>
<path opacity="0.1" d="M721.11 487.86C721.56 487.302 721.895 486.66 722.096 485.972C722.183 485.14 722.16 484.3 722.029 483.474C721.597 483.799 721.274 484.246 721.099 484.757C720.769 485.748 721.15 486.824 721.11 487.86Z" fill="black"/>
<path opacity="0.1" d="M754.497 538.322C754.126 538.891 753.618 539.357 753.018 539.677C752.235 539.954 751.389 539.997 750.582 539.801C746.834 539.24 742.739 538.086 739.423 539.896C737.625 540.871 736.23 542.641 734.23 543.089C730.919 543.828 728.096 540.652 724.824 539.728C722.505 539.084 720.063 539.616 717.727 540.288C717.263 541.278 716.636 542.183 715.873 542.966C718.449 542.226 721.189 541.481 723.771 542.198C727.043 543.106 729.866 546.282 733.182 545.559C735.177 545.117 736.577 543.347 738.37 542.366C741.731 540.557 745.781 541.694 749.529 542.277C750.336 542.467 751.181 542.424 751.965 542.153C752.565 541.831 753.073 541.363 753.444 540.792C754.459 539.453 755.243 537.953 755.763 536.356C755.389 537.04 754.966 537.697 754.497 538.322Z" fill="black"/>
</g>
</g>
<defs>
<linearGradient id="paint0_linear" x1="674.559" y1="589.069" x2="760.267" y2="589.069" gradientUnits="userSpaceOnUse">
<stop stop-color="#808080" stop-opacity="0.25"/>
<stop offset="0.54" stop-color="#808080" stop-opacity="0.12"/>
<stop offset="1" stop-color="#808080" stop-opacity="0.1"/>
</linearGradient>
<clipPath id="clip0">
<rect width="653.272" height="451" fill="white" transform="translate(244 246)"/>
</clipPath>
</defs>
</svg>
